<svg width="163" height="60" viewBox="0 0 163 60" fill="none" xmlns="http://www.w3.org/2000/svg">
<path d="M117.077 27.9697C114.448 27.8451 112.407 26.7378 111.117 24.4745C109.692 21.9729 109.797 19.4334 111.387 17.0402C112.718 15.0421 114.664 14.0783 117.072 13.9917L117.077 27.9697Z" fill="#202020"/>
<path d="M86.2871 34.7461C88.6733 34.8273 90.6059 35.7857 91.9286 37.7404C93.513 40.0606 93.648 42.5459 92.3496 45.0502C91.162 47.3325 88.6247 48.8215 86.2871 48.697V34.7461Z" fill="#202020"/>
<path d="M114.88 47.6033L114.764 47.698C114.365 48.0281 113.904 48.276 113.409 48.4274C112.914 48.5789 112.394 48.6309 111.879 48.5806C111.364 48.5303 110.864 48.3787 110.407 48.1343C109.95 47.89 109.546 47.5577 109.217 47.1566L87.2617 20.8115C86.5977 20.0019 86.2816 18.9609 86.3828 17.9175C86.484 16.8742 86.9944 15.9139 87.8015 15.2479L87.9176 15.1531C88.3171 14.823 88.7776 14.5752 89.2727 14.4238C89.7678 14.2723 90.2878 14.2202 90.803 14.2705C91.3182 14.3208 91.8184 14.4725 92.2751 14.7168C92.7318 14.9612 93.136 15.2934 93.4646 15.6946L115.418 42.0532C116.078 42.8617 116.392 43.8994 116.291 44.9394C116.19 45.9795 115.683 46.9372 114.88 47.6033Z" fill="#202020"/>
<path d="M133.696 14.4173L132.995 14.7336C131.253 15.5188 130.475 17.5715 131.258 19.3186L143.457 46.5439C144.24 48.291 146.287 49.0707 148.029 48.2856L148.73 47.9693C150.472 47.1841 151.25 45.1314 150.467 43.3843L138.268 16.159C137.485 14.4119 135.438 13.6322 133.696 14.4173Z" fill="#202020"/>
<path d="M130.939 16.1188L118.953 43.4394C118.184 45.1925 118.978 47.2391 120.725 48.0105L121.43 48.3213C123.178 49.0927 125.218 48.2968 125.987 46.5437L137.973 19.2231C138.742 17.4699 137.948 15.4234 136.2 14.6519L135.496 14.3412C133.748 13.5698 131.708 14.3656 130.939 16.1188Z" fill="#202020"/>
<path d="M78.4483 35.577C78.0478 36.7097 77.4957 37.7826 76.8071 38.7662C74.0701 42.3002 70.7185 44.0663 66.7524 44.0645H66.3313C63.7817 44.0545 61.2962 43.2629 59.208 41.7957C56.8848 39.9908 55.3165 37.9152 54.5032 35.5688H51.1426C51.5434 37.0138 52.1439 38.3953 52.9268 39.6732C56.3872 44.7756 60.8554 47.3277 66.3313 47.3295H66.6714C69.6442 47.3295 72.4919 46.4614 75.2145 44.7251C78.7218 42.1513 80.9478 39.0992 81.8925 35.5688L78.4483 35.577Z" fill="#202020"/>
<path d="M66.6718 48.6916H66.3371C60.415 48.6916 55.5401 45.9166 51.8151 40.4424L51.78 40.3855C50.9331 39 50.2826 37.5029 49.8474 35.9374L49.375 34.2236H55.4672L55.783 35.1306C56.5064 37.2071 57.9262 39.0779 60.0047 40.6969C61.86 42.0029 64.0705 42.706 66.3371 42.7111H66.7582C70.3077 42.7111 73.2364 41.1598 75.7251 37.9652C76.3342 37.0874 76.8243 36.1324 77.1827 35.1252L77.4985 34.2236H83.6502L83.1913 35.9293C82.1629 39.752 79.7443 43.082 76.0086 45.8273L75.9357 45.876C73.1826 47.69 69.9657 48.6678 66.6718 48.6916Z" fill="#202020"/>
<path d="M54.3525 27.7988C54.7328 26.4926 55.3227 25.2573 56.0989 24.1412C58.8521 20.4899 62.3225 18.6643 66.5099 18.6643C68.753 18.6828 70.9511 19.2975 72.8802 20.4457C75.9195 22.395 77.854 24.846 78.6836 27.7988H81.9848C81.5557 26.0687 80.8812 24.4093 79.9819 22.8715C76.3739 17.8846 71.8832 15.3911 66.5099 15.3911C63.2546 15.3911 60.1766 16.401 57.2758 18.4206C53.8693 21.0792 51.7621 24.2053 50.9541 27.7988H54.3525Z" fill="#5D7AC1"/>
<path d="M83.6983 29.1526H77.6628L77.3929 28.1671C76.6479 25.5275 74.9446 23.3806 72.1887 21.6046C70.4702 20.5872 68.5156 20.0401 66.5202 20.0181C62.7413 20.0181 59.7046 21.6262 57.2024 24.9346C56.5176 25.9276 55.9963 27.0245 55.6584 28.1834L55.3885 29.158H49.2666L49.6391 27.5066C50.5137 23.6134 52.8053 20.1967 56.4466 17.3567L56.506 17.3134C59.6236 15.1476 62.9842 14.043 66.5094 14.043C72.3129 14.043 77.212 16.7503 81.0854 22.0811L81.1637 22.2029C82.1251 23.8532 82.8468 25.6328 83.3069 27.4876L83.6983 29.1526Z" fill="#202020"/>
<path d="M41.7383 35.577C41.3378 36.7097 40.7857 37.7826 40.0971 38.7662C37.3601 42.3002 34.0085 44.0663 30.0424 44.0645H29.6213C27.0718 44.0545 24.5862 43.2629 22.498 41.7957C20.1748 39.9908 18.6066 37.9152 17.7932 35.5688H14.4326C14.8334 37.0138 15.434 38.3953 16.2168 39.6732C19.6773 44.7756 24.1454 47.3277 29.6213 47.3295H29.9614C32.9324 47.3295 35.7801 46.4614 38.5046 44.7251C42.0118 42.1513 44.2378 39.0992 45.1825 35.5688L41.7383 35.577Z" fill="#5D7AC1"/>
<path d="M29.9619 48.6916H29.6272C23.705 48.6916 18.8301 45.9166 15.1052 40.4424L15.0701 40.3855C14.2231 39 13.5726 37.5029 13.1374 35.9374L12.665 34.2236H18.7519L19.0677 35.1306C19.7911 37.2071 21.2109 39.0779 23.2893 40.6969C25.1447 42.0029 27.3551 42.706 29.6218 42.7111H30.0429C33.5924 42.7111 36.5211 41.1598 39.0098 37.9652C39.6188 37.0874 40.109 36.1324 40.4674 35.1252L40.7832 34.2236H46.9402L46.4813 35.9293C45.4502 39.752 43.0344 43.082 39.2986 45.8273L39.2257 45.876C36.4727 47.69 33.2558 48.6678 29.9619 48.6916Z" fill="#202020"/>
<path d="M17.6425 27.7988C18.0228 26.4926 18.6127 25.2573 19.3889 24.1412C22.1422 20.4899 25.6125 18.6643 29.8 18.6643C32.0431 18.6828 34.2411 19.2975 36.1702 20.4457C39.2096 22.395 41.144 24.846 41.9736 27.7988H45.2748C44.8458 26.0687 44.1713 24.4093 43.2719 22.8715C39.6639 17.8846 35.1733 15.3911 29.8 15.3911C26.5447 15.3911 23.4666 16.3973 20.5658 18.4098C17.1593 21.0756 15.0521 24.2053 14.2441 27.7988H17.6425Z" fill="#202020"/>
<path d="M46.9884 29.1526H40.9528L40.6829 28.1671C39.9379 25.5275 38.2347 23.3806 35.4787 21.6046C33.7603 20.5872 31.8056 20.0401 29.8103 20.0181C26.0313 20.0181 22.9947 21.6262 20.4925 24.9346C19.8077 25.9276 19.2864 27.0245 18.9485 28.1834L18.6786 29.158H12.5566L12.9291 27.5066C13.8037 23.6134 16.0954 20.1967 19.7367 17.3567L19.796 17.3134C22.9137 15.1476 26.2743 14.043 29.7995 14.043C35.6029 14.043 40.502 16.7503 44.3755 22.0811L44.4538 22.2029C45.4151 23.8532 46.1368 25.6328 46.597 27.4876L46.9884 29.1526Z" fill="#202020"/>
</svg>
