<svg width="11" height="11" viewBox="0 0 11 11" fill="none" xmlns="http://www.w3.org/2000/svg">
<path d="M1.79016 3.496V11H0.558164V3.496H1.79016ZM1.18816 0.681999C1.37483 0.681999 1.53816 0.747333 1.67816 0.877999C1.8275 0.999333 1.90216 1.19533 1.90216 1.466C1.90216 1.72733 1.8275 1.92333 1.67816 2.054C1.53816 2.18467 1.37483 2.25 1.18816 2.25C0.982831 2.25 0.810164 2.18467 0.670164 2.054C0.530164 1.92333 0.460164 1.72733 0.460164 1.466C0.460164 1.19533 0.530164 0.999333 0.670164 0.877999C0.810164 0.747333 0.982831 0.681999 1.18816 0.681999ZM7.77954 3.356C8.67554 3.356 9.35221 3.57533 9.80954 4.014C10.2669 4.44333 10.4955 5.14333 10.4955 6.114V11H9.27754V6.198C9.27754 5.59133 9.14221 5.13867 8.87154 4.84C8.60087 4.54133 8.17621 4.392 7.59754 4.392C6.76687 4.392 6.19287 4.62533 5.87554 5.092C5.55821 5.55867 5.39954 6.23067 5.39954 7.108V11H4.16754V3.496H5.16154L5.34354 4.518H5.41354C5.58154 4.25667 5.78687 4.042 6.02954 3.874C6.28154 3.69667 6.55687 3.566 6.85554 3.482C7.15421 3.398 7.46221 3.356 7.77954 3.356Z" fill="#202020"/>
</svg>
