<svg width="11" height="11" viewBox="0 0 11 11" fill="none" xmlns="http://www.w3.org/2000/svg">
<path d="M3.496 9.20984L11 9.20984L11 10.4418L3.496 10.4418L3.496 9.20984ZM0.681999 9.81184C0.681999 9.62517 0.747333 9.46184 0.877999 9.32184C0.999333 9.1725 1.19533 9.09784 1.466 9.09784C1.72733 9.09784 1.92333 9.1725 2.054 9.32184C2.18467 9.46184 2.25 9.62517 2.25 9.81184C2.25 10.0172 2.18467 10.1898 2.054 10.3298C1.92333 10.4698 1.72733 10.5398 1.466 10.5398C1.19533 10.5398 0.999333 10.4698 0.877999 10.3298C0.747333 10.1898 0.681999 10.0172 0.681999 9.81184ZM3.356 3.22046C3.356 2.32446 3.57533 1.64779 4.014 1.19046C4.44333 0.733127 5.14333 0.50446 6.114 0.50446L11 0.50446L11 1.72246L6.198 1.72246C5.59133 1.72246 5.13867 1.85779 4.84 2.12846C4.54133 2.39913 4.392 2.82379 4.392 3.40246C4.392 4.23313 4.62533 4.80713 5.092 5.12446C5.55867 5.44179 6.23067 5.60046 7.108 5.60046L11 5.60046L11 6.83246L3.496 6.83246L3.496 5.83846L4.518 5.65646L4.518 5.58646C4.25667 5.41846 4.042 5.21313 3.874 4.97046C3.69667 4.71846 3.566 4.44313 3.482 4.14446C3.398 3.84579 3.356 3.53779 3.356 3.22046Z" fill="white"/>
</svg>
