<svg width="118" height="32" viewBox="0 0 118 32" fill="none" xmlns="http://www.w3.org/2000/svg">
<g filter="url(#filter0_i_298_301)">
<path d="M87.8489 12.5204C85.6391 12.4166 83.924 11.4939 82.8396 9.60775C81.6417 7.5231 81.7302 5.40686 83.0664 3.41245C84.1849 1.74744 85.8206 0.944266 87.8443 0.87207L87.8489 12.5204Z" fill="white"/>
<path d="M61.9697 18.168C63.9753 18.2357 65.5996 19.0343 66.7113 20.6632C68.043 22.5967 68.1565 24.6678 67.0652 26.7547C66.067 28.6566 63.9344 29.8975 61.9697 29.7937V18.168Z" fill="white"/>
<path d="M86.0018 28.8826L85.9042 28.9616C85.5684 29.2366 85.1814 29.4432 84.7653 29.5694C84.3491 29.6956 83.9121 29.739 83.4791 29.6971C83.0461 29.6552 82.6256 29.5288 82.2418 29.3252C81.8579 29.1215 81.5182 28.8446 81.242 28.5103L62.7884 6.55611C62.2304 5.88145 61.9647 5.01397 62.0498 4.1445C62.1349 3.27503 62.5638 2.47478 63.2422 1.91979L63.3397 1.84083C63.6755 1.56576 64.0626 1.35921 64.4787 1.23301C64.8948 1.1068 65.3319 1.06342 65.7649 1.10532C66.1979 1.14723 66.6183 1.27361 67.0022 1.47724C67.386 1.68087 67.7258 1.95775 68.0019 2.29205L86.4532 24.2576C87.008 24.9313 87.272 25.796 87.1874 26.6628C87.1028 27.5295 86.6765 28.3276 86.0018 28.8826Z" fill="white"/>
<path d="M101.817 1.2275L101.227 1.49107C99.763 2.14537 99.1095 3.856 99.7675 5.31188L110.021 27.9996C110.679 29.4555 112.399 30.1053 113.863 29.451L114.453 29.1875C115.917 28.5332 116.57 26.8225 115.912 25.3666L105.659 2.67889C105.001 1.22301 103.281 0.573197 101.817 1.2275Z" fill="white"/>
<path d="M99.499 2.64515L89.4253 25.4123C88.7789 26.8733 89.4458 28.5787 90.915 29.2216L91.5068 29.4806C92.9759 30.1234 94.6909 29.4602 95.3373 27.9992L105.411 5.23205C106.057 3.77108 105.391 2.0656 103.921 1.42276L103.33 1.16379C101.86 0.520951 100.145 1.18418 99.499 2.64515Z" fill="white"/>
<path d="M45.4831 29.7891H45.2018C40.2243 29.7891 36.127 27.4766 32.9962 22.9147L32.9667 22.8673C32.2549 21.7127 31.7081 20.4651 31.3423 19.1605L30.9453 17.7324H36.0658L36.3312 18.4882C36.9392 20.2187 38.1326 21.7776 39.8795 23.1268C41.4389 24.2151 43.2967 24.8011 45.2018 24.8053H45.5557C48.5391 24.8053 51.0006 23.5126 53.0924 20.8504C53.6042 20.1189 54.0162 19.323 54.3175 18.4837L54.5829 17.7324H59.7533L59.3676 19.1538C58.5032 22.3394 56.4705 25.1144 53.3306 27.4021L53.2693 27.4427C50.9554 28.9544 48.2516 29.7692 45.4831 29.7891Z" fill="white"/>
<path d="M59.794 13.5064H54.7212L54.4943 12.6852C53.8682 10.4855 52.4366 8.69638 50.1203 7.21637C48.6759 6.36857 47.0331 5.91268 45.356 5.89428C42.1798 5.89428 39.6276 7.23441 37.5245 9.99139C36.9489 10.8189 36.5108 11.733 36.2268 12.6987L35.9999 13.5109H30.8545L31.1676 12.1347C31.9026 8.8904 33.8288 6.04319 36.8892 3.67652L36.9391 3.64043C39.5595 1.83553 42.384 0.915039 45.3469 0.915039C50.2247 0.915039 54.3423 3.17115 57.5979 7.61344L57.6637 7.71497C58.4717 9.09027 59.0783 10.5732 59.4651 12.1189L59.794 13.5064Z" fill="white"/>
<path d="M14.6287 29.7891H14.3473C9.3698 29.7891 5.27253 27.4766 2.14173 22.9147L2.11223 22.8673C1.40036 21.7127 0.85365 20.4651 0.487843 19.1605L0.0908203 17.7324H5.20674L5.47218 18.4882C6.08019 20.2187 7.27353 21.7776 9.02042 23.1268C10.5798 24.2151 12.4377 24.8011 14.3428 24.8053H14.6967C17.6801 24.8053 20.1416 23.5126 22.2333 20.8504C22.7452 20.1189 23.1572 19.323 23.4584 18.4837L23.7239 17.7324H28.8988L28.5131 19.1538C27.6465 22.3394 25.616 25.1144 22.4761 27.4021L22.4148 27.4427C20.1009 28.9544 17.3971 29.7692 14.6287 29.7891Z" fill="white"/>
<path d="M28.9395 13.5064H23.8667L23.6399 12.6852C23.0137 10.4855 21.5821 8.69638 19.2658 7.21637C17.8215 6.36857 16.1786 5.91268 14.5015 5.89428C11.3254 5.89428 8.77306 7.23441 6.66998 9.99139C6.09441 10.8189 5.65626 11.733 5.37228 12.6987L5.14541 13.5109H0L0.313081 12.1347C1.04814 8.8904 2.97427 6.04319 6.03474 3.67652L6.08465 3.64043C8.705 1.83553 11.5295 0.915039 14.4925 0.915039C19.3702 0.915039 23.4879 3.17115 26.7434 7.61344L26.8092 7.71497C27.6173 9.09027 28.2238 10.5732 28.6106 12.1189L28.9395 13.5064Z" fill="white"/>
</g>
<g filter="url(#filter1_i_298_301)">
<path d="M87.8489 13.5204C85.6391 13.4166 83.924 12.4939 82.8396 10.6077C81.6417 8.5231 81.7302 6.40686 83.0664 4.41245C84.1849 2.74744 85.8206 1.94427 87.8443 1.87207L87.8489 13.5204Z" fill="#E44F25"/>
<path d="M61.9697 19.168C63.9753 19.2357 65.5996 20.0343 66.7113 21.6632C68.043 23.5967 68.1565 25.6678 67.0652 27.7547C66.067 29.6566 63.9344 30.8975 61.9697 30.7937V19.168Z" fill="#FDCF00"/>
<path d="M86.0018 29.8826L85.9042 29.9616C85.5684 30.2366 85.1814 30.4432 84.7653 30.5694C84.3491 30.6956 83.9121 30.739 83.4791 30.6971C83.0461 30.6552 82.6256 30.5288 82.2418 30.3252C81.8579 30.1215 81.5182 29.8446 81.242 29.5103L62.7884 7.55611C62.2304 6.88145 61.9647 6.01397 62.0498 5.1445C62.1349 4.27503 62.5638 3.47478 63.2422 2.91979L63.3397 2.84083C63.6755 2.56576 64.0626 2.35921 64.4787 2.23301C64.8948 2.1068 65.3319 2.06342 65.7649 2.10532C66.1979 2.14723 66.6183 2.27361 67.0022 2.47724C67.386 2.68087 67.7258 2.95775 68.0019 3.29205L86.4532 25.2576C87.008 25.9313 87.272 26.796 87.1874 27.6628C87.1028 28.5295 86.6765 29.3276 86.0018 29.8826Z" fill="#234062"/>
<path d="M101.817 2.2275L101.227 2.49107C99.763 3.14537 99.1095 4.856 99.7675 6.31188L110.021 28.9996C110.679 30.4555 112.399 31.1053 113.863 30.451L114.453 30.1875C115.917 29.5332 116.57 27.8225 115.912 26.3666L105.659 3.67889C105.001 2.22301 103.281 1.5732 101.817 2.2275Z" fill="#00A7E1"/>
<path d="M99.499 3.64515L89.4253 26.4123C88.7789 27.8733 89.4458 29.5787 90.915 30.2216L91.5068 30.4806C92.9759 31.1234 94.6909 30.4602 95.3373 28.9992L105.411 6.23205C106.057 4.77108 105.391 3.0656 103.921 2.42276L103.33 2.16379C101.86 1.52095 100.145 2.18418 99.499 3.64515Z" fill="#00A7E1"/>
<path d="M45.4831 30.7891H45.2018C40.2243 30.7891 36.127 28.4766 32.9962 23.9147L32.9667 23.8673C32.2549 22.7127 31.7081 21.4651 31.3423 20.1605L30.9453 18.7324H36.0658L36.3312 19.4882C36.9392 21.2187 38.1326 22.7776 39.8795 24.1268C41.4389 25.2151 43.2967 25.8011 45.2018 25.8053H45.5557C48.5391 25.8053 51.0006 24.5126 53.0924 21.8504C53.6042 21.1189 54.0162 20.323 54.3175 19.4837L54.5829 18.7324H59.7533L59.3676 20.1538C58.5032 23.3394 56.4705 26.1144 53.3306 28.4021L53.2693 28.4427C50.9554 29.9544 48.2516 30.7692 45.4831 30.7891Z" fill="#00A7E1"/>
<path d="M59.794 14.5064H54.7212L54.4943 13.6852C53.8682 11.4855 52.4366 9.69638 50.1203 8.21637C48.6759 7.36857 47.0331 6.91268 45.356 6.89428C42.1798 6.89428 39.6276 8.23441 37.5245 10.9914C36.9489 11.8189 36.5108 12.733 36.2268 13.6987L35.9999 14.5109H30.8545L31.1676 13.1347C31.9026 9.8904 33.8288 7.04319 36.8892 4.67652L36.9391 4.64043C39.5595 2.83553 42.384 1.91504 45.3469 1.91504C50.2247 1.91504 54.3423 4.17115 57.5979 8.61344L57.6637 8.71497C58.4717 10.0903 59.0783 11.5732 59.4651 13.1189L59.794 14.5064Z" fill="#234062"/>
<path d="M14.6287 30.7891H14.3473C9.3698 30.7891 5.27253 28.4766 2.14173 23.9147L2.11223 23.8673C1.40036 22.7127 0.85365 21.4651 0.487843 20.1605L0.0908203 18.7324H5.20674L5.47218 19.4882C6.08019 21.2187 7.27353 22.7776 9.02042 24.1268C10.5798 25.2151 12.4377 25.8011 14.3428 25.8053H14.6967C17.6801 25.8053 20.1416 24.5126 22.2333 21.8504C22.7452 21.1189 23.1572 20.323 23.4584 19.4837L23.7239 18.7324H28.8988L28.5131 20.1538C27.6465 23.3394 25.616 26.1144 22.4761 28.4021L22.4148 28.4427C20.1009 29.9544 17.3971 30.7692 14.6287 30.7891Z" fill="#234062"/>
<path d="M28.9395 14.5064H23.8667L23.6399 13.6852C23.0137 11.4855 21.5821 9.69638 19.2658 8.21637C17.8215 7.36857 16.1786 6.91268 14.5015 6.89428C11.3254 6.89428 8.77306 8.23441 6.66998 10.9914C6.09441 11.8189 5.65626 12.733 5.37228 13.6987L5.14541 14.5109H0L0.313081 13.1347C1.04814 9.8904 2.97427 7.04319 6.03474 4.67652L6.08465 4.64043C8.705 2.83553 11.5295 1.91504 14.4925 1.91504C19.3702 1.91504 23.4879 4.17115 26.7434 8.61344L26.8092 8.71497C27.6173 10.0903 28.2238 11.5732 28.6106 13.1189L28.9395 14.5064Z" fill="#00A7E1"/>
</g>
<defs>
<filter id="filter0_i_298_301" x="0" y="0.87207" width="116.168" height="28.9277" filterUnits="userSpaceOnUse" color-interpolation-filters="sRGB">
<feFlood flood-opacity="0" result="BackgroundImageFix"/>
<feBlend mode="normal" in="SourceGraphic" in2="BackgroundImageFix" result="shape"/>
<feColorMatrix in="SourceAlpha" type="matrix" values="0 0 0 0 0 0 0 0 0 0 0 0 0 0 0 0 0 0 127 0" result="hardAlpha"/>
<feOffset dy="4"/>
<feComposite in2="hardAlpha" operator="arithmetic" k2="-1" k3="1"/>
<feColorMatrix type="matrix" values="0 0 0 0 1 0 0 0 0 1 0 0 0 0 1 0 0 0 0.12 0"/>
<feBlend mode="normal" in2="shape" result="effect1_innerShadow_298_301"/>
</filter>
<filter id="filter1_i_298_301" x="0" y="1.87207" width="116.168" height="28.9277" filterUnits="userSpaceOnUse" color-interpolation-filters="sRGB">
<feFlood flood-opacity="0" result="BackgroundImageFix"/>
<feBlend mode="normal" in="SourceGraphic" in2="BackgroundImageFix" result="shape"/>
<feColorMatrix in="SourceAlpha" type="matrix" values="0 0 0 0 0 0 0 0 0 0 0 0 0 0 0 0 0 0 127 0" result="hardAlpha"/>
<feOffset dy="4"/>
<feComposite in2="hardAlpha" operator="arithmetic" k2="-1" k3="1"/>
<feColorMatrix type="matrix" values="0 0 0 0 1 0 0 0 0 1 0 0 0 0 1 0 0 0 0.12 0"/>
<feBlend mode="normal" in2="shape" result="effect1_innerShadow_298_301"/>
</filter>
</defs>
</svg>
