<svg width="113" height="57" viewBox="0 0 113 57" fill="none" xmlns="http://www.w3.org/2000/svg">
<path d="M110.971 37.8303C111.749 37.8303 112.381 37.199 112.381 36.4203C112.381 35.6415 111.749 35.0103 110.971 35.0103C110.192 35.0103 109.561 35.6415 109.561 36.4203C109.561 37.199 110.192 37.8303 110.971 37.8303Z" fill="white"/>
<path d="M110.971 56.2502C111.749 56.2502 112.381 55.6189 112.381 54.8402C112.381 54.0615 111.749 53.4302 110.971 53.4302C110.192 53.4302 109.561 54.0615 109.561 54.8402C109.561 55.6189 110.192 56.2502 110.971 56.2502Z" fill="white"/>
<path d="M92.7108 37.8303C93.4895 37.8303 94.1208 37.199 94.1208 36.4203C94.1208 35.6415 93.4895 35.0103 92.7108 35.0103C91.9321 35.0103 91.3008 35.6415 91.3008 36.4203C91.3008 37.199 91.9321 37.8303 92.7108 37.8303Z" fill="white"/>
<path d="M92.7108 56.2502C93.4895 56.2502 94.1208 55.6189 94.1208 54.8402C94.1208 54.0615 93.4895 53.4302 92.7108 53.4302C91.9321 53.4302 91.3008 54.0615 91.3008 54.8402C91.3008 55.6189 91.9321 56.2502 92.7108 56.2502Z" fill="white"/>
<path d="M74.4608 37.8303C75.2395 37.8303 75.8708 37.199 75.8708 36.4203C75.8708 35.6415 75.2395 35.0103 74.4608 35.0103C73.6821 35.0103 73.0508 35.6415 73.0508 36.4203C73.0508 37.199 73.6821 37.8303 74.4608 37.8303Z" fill="white"/>
<path d="M74.4608 56.2502C75.2395 56.2502 75.8708 55.6189 75.8708 54.8402C75.8708 54.0615 75.2395 53.4302 74.4608 53.4302C73.6821 53.4302 73.0508 54.0615 73.0508 54.8402C73.0508 55.6189 73.6821 56.2502 74.4608 56.2502Z" fill="white"/>
<path d="M56.2 37.8303C56.9788 37.8303 57.61 37.199 57.61 36.4203C57.61 35.6415 56.9788 35.0103 56.2 35.0103C55.4213 35.0103 54.79 35.6415 54.79 36.4203C54.79 37.199 55.4213 37.8303 56.2 37.8303Z" fill="white"/>
<path d="M56.2 56.2502C56.9788 56.2502 57.61 55.6189 57.61 54.8402C57.61 54.0615 56.9788 53.4302 56.2 53.4302C55.4213 53.4302 54.79 54.0615 54.79 54.8402C54.79 55.6189 55.4213 56.2502 56.2 56.2502Z" fill="white"/>
<path d="M37.9405 37.84C37.6596 37.84 37.3851 37.7567 37.1516 37.6007C36.9181 37.4447 36.7361 37.2229 36.6286 36.9634C36.5211 36.7039 36.493 36.4184 36.5478 36.143C36.6026 35.8675 36.7378 35.6145 36.9364 35.4159C37.135 35.2173 37.388 35.0821 37.6635 35.0273C37.9389 34.9725 38.2244 35.0006 38.4839 35.1081C38.7434 35.2156 38.9652 35.3976 39.1212 35.6311C39.2772 35.8646 39.3605 36.1392 39.3605 36.42C39.3605 36.7966 39.2109 37.1578 38.9446 37.4241C38.6783 37.6904 38.3171 37.84 37.9405 37.84Z" fill="white"/>
<path d="M37.94 56.2799C37.6616 56.278 37.39 56.1936 37.1594 56.0374C36.9289 55.8813 36.7497 55.6604 36.6445 55.4026C36.5393 55.1448 36.5128 54.8616 36.5684 54.5888C36.6239 54.3159 36.759 54.0656 36.9565 53.8694C37.1541 53.6732 37.4054 53.5399 37.6786 53.4863C37.9519 53.4327 38.2349 53.4612 38.4919 53.5682C38.749 53.6752 38.9686 53.856 39.1231 54.0876C39.2776 54.3193 39.36 54.5915 39.36 54.8699C39.3601 55.0559 39.3233 55.2401 39.2518 55.4118C39.1803 55.5835 39.0755 55.7394 38.9435 55.8705C38.8116 56.0016 38.6549 56.1052 38.4827 56.1755C38.3105 56.2457 38.126 56.2812 37.94 56.2799Z" fill="white"/>
<path d="M19.6903 37.8303C20.469 37.8303 21.1003 37.199 21.1003 36.4203C21.1003 35.6415 20.469 35.0103 19.6903 35.0103C18.9116 35.0103 18.2803 35.6415 18.2803 36.4203C18.2803 37.199 18.9116 37.8303 19.6903 37.8303Z" fill="white"/>
<path d="M19.6903 56.2502C20.469 56.2502 21.1003 55.6189 21.1003 54.8402C21.1003 54.0615 20.469 53.4302 19.6903 53.4302C18.9116 53.4302 18.2803 54.0615 18.2803 54.8402C18.2803 55.6189 18.9116 56.2502 19.6903 56.2502Z" fill="white"/>
<path d="M1.43001 37.84C1.14874 37.8419 0.873213 37.7603 0.638384 37.6055C0.403554 37.4507 0.21999 37.2296 0.110979 36.9703C0.00196729 36.711 -0.0275776 36.4252 0.0260788 36.1491C0.0797353 35.873 0.214184 35.6191 0.41237 35.4195C0.610557 35.2199 0.863546 35.0836 1.13927 35.028C1.41499 34.9724 1.70102 35 1.96108 35.1071C2.22113 35.2143 2.44348 35.3963 2.59996 35.63C2.75644 35.8638 2.83998 36.1387 2.83998 36.42C2.83999 36.7948 2.69177 37.1545 2.42763 37.4205C2.16349 37.6866 1.80488 37.8373 1.43001 37.84Z" fill="white"/>
<path d="M1.43053 56.28C1.15166 56.28 0.879047 56.1973 0.647174 56.0423C0.415301 55.8874 0.234576 55.6672 0.127856 55.4095C0.0211366 55.1519 -0.0068102 54.8684 0.047595 54.5949C0.102 54.3214 0.236298 54.0701 0.43349 53.873C0.630682 53.6758 0.881931 53.5415 1.15544 53.4871C1.42896 53.4327 1.71247 53.4606 1.97011 53.5673C2.22775 53.674 2.44796 53.8547 2.60289 54.0866C2.75783 54.3185 2.8405 54.5911 2.8405 54.87C2.8405 55.2439 2.69197 55.6026 2.42754 55.867C2.16311 56.1314 1.80448 56.28 1.43053 56.28Z" fill="white"/>
<path d="M110.971 2.83026C111.749 2.83026 112.381 2.19898 112.381 1.42026C112.381 0.641536 111.749 0.0102539 110.971 0.0102539C110.192 0.0102539 109.561 0.641536 109.561 1.42026C109.561 2.19898 110.192 2.83026 110.971 2.83026Z" fill="white"/>
<path d="M110.971 21.2502C111.749 21.2502 112.381 20.6189 112.381 19.8402C112.381 19.0615 111.749 18.4302 110.971 18.4302C110.192 18.4302 109.561 19.0615 109.561 19.8402C109.561 20.6189 110.192 21.2502 110.971 21.2502Z" fill="white"/>
<path d="M92.7108 2.83026C93.4895 2.83026 94.1208 2.19898 94.1208 1.42026C94.1208 0.641536 93.4895 0.0102539 92.7108 0.0102539C91.9321 0.0102539 91.3008 0.641536 91.3008 1.42026C91.3008 2.19898 91.9321 2.83026 92.7108 2.83026Z" fill="white"/>
<path d="M92.7108 21.2502C93.4895 21.2502 94.1208 20.6189 94.1208 19.8402C94.1208 19.0615 93.4895 18.4302 92.7108 18.4302C91.9321 18.4302 91.3008 19.0615 91.3008 19.8402C91.3008 20.6189 91.9321 21.2502 92.7108 21.2502Z" fill="white"/>
<path d="M74.4608 2.83026C75.2395 2.83026 75.8708 2.19898 75.8708 1.42026C75.8708 0.641536 75.2395 0.0102539 74.4608 0.0102539C73.6821 0.0102539 73.0508 0.641536 73.0508 1.42026C73.0508 2.19898 73.6821 2.83026 74.4608 2.83026Z" fill="white"/>
<path d="M74.4608 21.2502C75.2395 21.2502 75.8708 20.6189 75.8708 19.8402C75.8708 19.0615 75.2395 18.4302 74.4608 18.4302C73.6821 18.4302 73.0508 19.0615 73.0508 19.8402C73.0508 20.6189 73.6821 21.2502 74.4608 21.2502Z" fill="white"/>
<path d="M56.2 2.83026C56.9788 2.83026 57.61 2.19898 57.61 1.42026C57.61 0.641536 56.9788 0.0102539 56.2 0.0102539C55.4213 0.0102539 54.79 0.641536 54.79 1.42026C54.79 2.19898 55.4213 2.83026 56.2 2.83026Z" fill="white"/>
<path d="M56.2 21.2502C56.9788 21.2502 57.61 20.6189 57.61 19.8402C57.61 19.0615 56.9788 18.4302 56.2 18.4302C55.4213 18.4302 54.79 19.0615 54.79 19.8402C54.79 20.6189 55.4213 21.2502 56.2 21.2502Z" fill="white"/>
<path d="M37.9405 2.84C37.6596 2.84 37.3851 2.75673 37.1516 2.60069C36.9181 2.44466 36.7361 2.22288 36.6286 1.96341C36.5211 1.70394 36.493 1.41843 36.5478 1.14298C36.6026 0.867523 36.7378 0.614501 36.9364 0.415911C37.135 0.21732 37.388 0.0820754 37.6635 0.0272844C37.9389 -0.0275066 38.2244 0.000618517 38.4839 0.108095C38.7434 0.215571 38.9652 0.397572 39.1212 0.63109C39.2772 0.864608 39.3605 1.13915 39.3605 1.42C39.3605 1.79661 39.2109 2.15779 38.9446 2.42409C38.6783 2.69039 38.3171 2.84 37.9405 2.84Z" fill="white"/>
<path d="M37.94 21.2799C37.6616 21.278 37.39 21.1936 37.1594 21.0374C36.9289 20.8813 36.7497 20.6604 36.6445 20.4026C36.5393 20.1448 36.5128 19.8616 36.5684 19.5888C36.6239 19.3159 36.759 19.0656 36.9565 18.8694C37.1541 18.6732 37.4054 18.5399 37.6786 18.4863C37.9519 18.4327 38.2349 18.4612 38.4919 18.5682C38.749 18.6752 38.9686 18.856 39.1231 19.0876C39.2776 19.3193 39.36 19.5915 39.36 19.8699C39.3601 20.0559 39.3233 20.2401 39.2518 20.4118C39.1803 20.5835 39.0755 20.7394 38.9435 20.8705C38.8116 21.0016 38.6549 21.1052 38.4827 21.1755C38.3105 21.2457 38.126 21.2812 37.94 21.2799Z" fill="white"/>
<path d="M19.6903 2.83026C20.469 2.83026 21.1003 2.19898 21.1003 1.42026C21.1003 0.641536 20.469 0.0102539 19.6903 0.0102539C18.9116 0.0102539 18.2803 0.641536 18.2803 1.42026C18.2803 2.19898 18.9116 2.83026 19.6903 2.83026Z" fill="white"/>
<path d="M19.6903 21.2502C20.469 21.2502 21.1003 20.6189 21.1003 19.8402C21.1003 19.0615 20.469 18.4302 19.6903 18.4302C18.9116 18.4302 18.2803 19.0615 18.2803 19.8402C18.2803 20.6189 18.9116 21.2502 19.6903 21.2502Z" fill="white"/>
<path d="M1.43001 2.83996C1.14874 2.84194 0.873213 2.76035 0.638384 2.60553C0.403554 2.4507 0.21999 2.22962 0.110979 1.97033C0.00196729 1.71104 -0.0275776 1.42523 0.0260788 1.14912C0.0797353 0.873011 0.214184 0.619052 0.41237 0.41946C0.610557 0.219868 0.863546 0.0836325 1.13927 0.0280261C1.41499 -0.0275803 1.70102 -4.86821e-05 1.96108 0.107128C2.22113 0.214304 2.44348 0.396301 2.59996 0.630031C2.75644 0.863761 2.83998 1.13869 2.83998 1.41996C2.83999 1.79484 2.69177 2.15453 2.42763 2.42054C2.16349 2.68656 1.80488 2.83732 1.43001 2.83996Z" fill="white"/>
<path d="M1.43053 21.28C1.15166 21.28 0.879047 21.1973 0.647174 21.0423C0.415301 20.8874 0.234576 20.6672 0.127856 20.4095C0.0211366 20.1519 -0.0068102 19.8684 0.047595 19.5949C0.102 19.3214 0.236298 19.0701 0.43349 18.873C0.630682 18.6758 0.881931 18.5415 1.15544 18.4871C1.42896 18.4327 1.71247 18.4606 1.97011 18.5673C2.22775 18.674 2.44796 18.8547 2.60289 19.0866C2.75783 19.3185 2.8405 19.5911 2.8405 19.87C2.8405 20.2439 2.69197 20.6026 2.42754 20.867C2.16311 21.1314 1.80448 21.28 1.43053 21.28Z" fill="white"/>
</svg>
