<svg width="250" height="250" viewBox="0 0 250 250" fill="none" xmlns="http://www.w3.org/2000/svg">
<path opacity="0.5" d="M125.195 232.095C186.311 232.095 235.855 225.225 235.855 216.75C235.855 208.275 186.311 201.405 125.195 201.405C64.0793 201.405 14.5352 208.275 14.5352 216.75C14.5352 225.225 64.0793 232.095 125.195 232.095Z" fill="#F5F5F5"/>
<path d="M105.285 189.2C105.317 187.084 105.178 184.969 104.87 182.875C104.55 180.71 103.54 173.81 99.9002 168.595C94.4002 160.71 88.1652 164.225 81.7752 156.095C78.1152 151.43 79.1452 148.985 74.9652 145.25C71.2702 141.955 67.3002 140.75 63.0752 140.045C52.3802 138.285 34.9302 139.935 34.9302 139.935C36.4302 156.845 42.0902 163.84 46.9952 167.1C53.8802 171.68 59.1752 168.875 65.3152 174.355C73.3002 181.5 68.0552 189.56 75.5002 197C75.5002 197 78.7602 200.25 104.07 205.06L105.285 189.2Z" fill="#F5F5F5"/>
<path d="M104.08 205.045C104.08 205.045 84.5252 171.765 77.0802 165.245C69.6352 158.725 34.9302 139.92 34.9302 139.92" stroke="#D6D6D6" stroke-width="0.47" stroke-linecap="round" stroke-linejoin="round"/>
<path d="M60.04 154.11L38.2 155.335" stroke="#D6D6D6" stroke-width="0.47" stroke-linecap="round" stroke-linejoin="round"/>
<path d="M64.5552 156.815L66.0052 140.615" stroke="#D6D6D6" stroke-width="0.47" stroke-linecap="round" stroke-linejoin="round"/>
<path d="M74.4851 163.23L55.5801 170.215" stroke="#D6D6D6" stroke-width="0.47" stroke-linecap="round" stroke-linejoin="round"/>
<path d="M82.48 171.536L84.915 159.256" stroke="#D6D6D6" stroke-width="0.47" stroke-linecap="round" stroke-linejoin="round"/>
<path d="M88.585 180.235L70.27 183.58" stroke="#D6D6D6" stroke-width="0.47" stroke-linecap="round" stroke-linejoin="round"/>
<path d="M93.3601 187.57L100.25 169.115" stroke="#D6D6D6" stroke-width="0.47" stroke-linecap="round" stroke-linejoin="round"/>
<path d="M97.7051 194.506L76.5251 197.626" stroke="#D6D6D6" stroke-width="0.47" stroke-linecap="round" stroke-linejoin="round"/>
<path d="M93.6601 191.806C92.8796 189.838 91.9415 187.937 90.8551 186.121C89.7401 184.246 86.1651 178.251 80.8101 174.826C72.7151 169.641 68.3101 175.271 59.2751 170.186C54.1151 167.271 54.1301 164.621 48.8351 162.771C44.1601 161.136 40.0301 161.531 35.8601 162.501C25.3051 164.966 9.81006 173.156 9.81006 173.156C17.6351 188.221 25.5651 192.511 31.3451 193.656C39.4551 195.256 43.2801 190.656 51.0451 193.361C61.1501 196.901 59.3951 206.361 69.1201 210.386C69.1201 210.386 73.3751 212.146 98.6201 206.916L93.6601 191.806Z" fill="#F5F5F5"/>
<path d="M98.6051 206.91C98.6051 206.91 67.8151 183.63 58.4401 180.45C49.0651 177.27 9.81006 173.155 9.81006 173.155" stroke="#D6D6D6" stroke-width="0.47" stroke-linecap="round" stroke-linejoin="round"/>
<path d="M38.4401 176.676L18.7251 186.151" stroke="#D6D6D6" stroke-width="0.47" stroke-linecap="round" stroke-linejoin="round"/>
<path d="M43.64 177.446L38.79 161.926" stroke="#D6D6D6" stroke-width="0.47" stroke-linecap="round" stroke-linejoin="round"/>
<path d="M55.2701 179.58L40.4751 193.26" stroke="#D6D6D6" stroke-width="0.47" stroke-linecap="round" stroke-linejoin="round"/>
<path d="M65.8351 184.195L63.3901 171.92" stroke="#D6D6D6" stroke-width="0.47" stroke-linecap="round" stroke-linejoin="round"/>
<path d="M74.8 189.905L59.155 199.995" stroke="#D6D6D6" stroke-width="0.47" stroke-linecap="round" stroke-linejoin="round"/>
<path d="M82.0151 194.855L81.3301 175.17" stroke="#D6D6D6" stroke-width="0.47" stroke-linecap="round" stroke-linejoin="round"/>
<path d="M88.6852 199.605L70.3052 210.585" stroke="#D6D6D6" stroke-width="0.47" stroke-linecap="round" stroke-linejoin="round"/>
<path d="M164.9 207.16H98.23L104.65 163.075H158.48L164.9 207.16Z" fill="#00A7E1"/>
<path d="M214.455 51.1553H48.6702C44.459 51.1553 41.0452 54.5691 41.0452 58.7803V163.225C41.0452 167.436 44.459 170.85 48.6702 170.85H214.455C218.666 170.85 222.08 167.436 222.08 163.225V58.7803C222.08 54.5691 218.666 51.1553 214.455 51.1553Z" fill="#00A7E1"/>
<path d="M210.065 54.7607H53.0649C48.8538 54.7607 45.4399 58.1746 45.4399 62.3857V150.671C45.4399 154.882 48.8538 158.296 53.0649 158.296H210.065C214.276 158.296 217.69 154.882 217.69 150.671V62.3857C217.69 58.1746 214.276 54.7607 210.065 54.7607Z" fill="#F3FCFF"/>
<path d="M179.03 210.37H84.1001V205.785C84.1001 204.086 84.7737 202.456 85.9734 201.253C87.1731 200.049 88.8009 199.371 90.5001 199.365H172.61C174.313 199.365 175.946 200.042 177.15 201.246C178.354 202.45 179.03 204.083 179.03 205.785V210.37Z" fill="#00A7E1"/>
<path d="M51.0552 158.29H208.89" stroke="#262626" stroke-linecap="round" stroke-linejoin="round"/>
<path d="M88.28 208.08V205.67C88.28 204.971 88.5576 204.301 89.0518 203.807C89.546 203.313 90.2162 203.035 90.915 203.035H162.115" stroke="#262626" stroke-linecap="round" stroke-linejoin="round"/>
<path d="M154.545 174.37L157.07 193.635" stroke="#262626" stroke-linecap="round" stroke-linejoin="round"/>
<path d="M129.975 168.656C132.016 168.656 133.67 167.001 133.67 164.961C133.67 162.92 132.016 161.266 129.975 161.266C127.934 161.266 126.28 162.92 126.28 164.961C126.28 167.001 127.934 168.656 129.975 168.656Z" fill="white"/>
<path d="M182.5 61.7852H202.105C203.899 61.7852 205.62 62.4979 206.889 63.7666C208.157 65.0353 208.87 66.756 208.87 68.5502V109.285" stroke="white" stroke-linecap="round" stroke-linejoin="round"/>
<path d="M197.5 74.6904C198.365 72.4587 199.491 70.3373 200.855 68.3704C201.993 66.8554 203.476 65.6334 205.18 64.8054C206.205 64.2678 207.298 63.8741 208.43 63.6354C209.521 63.4113 210.595 63.1123 211.645 62.7404C212.648 62.3783 213.592 61.873 214.45 61.2404C215.413 60.4765 216.145 59.4605 216.565 58.3054C217.505 56.0387 217.54 54.2054 216.67 52.8054C215.755 51.352 214.396 50.2318 212.795 49.6104C210.352 48.6104 208.383 48.592 206.89 49.5554C205.39 50.5554 204.06 52.1304 202.89 54.3404L193.955 50.6254C194.803 48.5069 196.049 46.5704 197.625 44.9204C199.049 43.4257 200.78 42.2587 202.7 41.5004C204.665 40.7653 206.761 40.4485 208.855 40.5704C211.188 40.7018 213.479 41.2417 215.625 42.1654C220.625 44.2354 224.14 46.887 226.17 50.1204C228.2 53.3537 228.27 57.2554 226.38 61.8254C225.859 63.1406 225.166 64.3814 224.32 65.5154C223.589 66.4682 222.71 67.2972 221.715 67.9704C220.699 68.6403 219.602 69.1796 218.45 69.5754C217.247 69.9954 215.913 70.3904 214.45 70.7604C213.3 71.0579 212.175 71.4458 211.085 71.9204C210.238 72.295 209.46 72.8107 208.785 73.4454C208.156 74.0479 207.621 74.7425 207.2 75.5054C206.724 76.3733 206.298 77.2682 205.925 78.1854L197.5 74.6904ZM191.65 87.9454L195.42 78.8704L204.77 82.7554L201 91.8304L191.65 87.9454Z" fill="#FDD51F"/>
<path d="M143 88.3101V80.9001C143.001 80.3219 142.887 79.7492 142.666 79.2148C142.446 78.6804 142.122 78.1947 141.713 77.7856C141.304 77.3765 140.819 77.052 140.285 76.8305C139.751 76.6091 139.178 76.4951 138.6 76.4951H95.6C95.0217 76.4951 94.4492 76.6091 93.915 76.8305C93.3808 77.052 92.8956 77.3765 92.4869 77.7856C92.0783 78.1947 91.7543 78.6804 91.5335 79.2148C91.3126 79.7492 91.1993 80.3219 91.2 80.9001V137.675C91.2 138.842 91.6635 139.961 92.4887 140.786C93.3138 141.612 94.433 142.075 95.6 142.075H164.365C165.532 142.075 166.651 141.612 167.476 140.786C168.301 139.961 168.765 138.842 168.765 137.675V92.7101C168.765 91.5432 168.301 90.424 167.476 89.5988C166.651 88.7737 165.532 88.3101 164.365 88.3101H143Z" fill="#F1F1F1"/>
<path d="M138.64 98.6602L129.975 107.325L121.31 98.6602L116.08 103.89L124.745 112.555L116.08 121.22L121.31 126.45L129.975 117.785L138.64 126.45L143.87 121.22L135.205 112.555L143.87 103.89L138.64 98.6602Z" fill="#D6D6D6"/>
<path d="M36.0801 209.945V204.24H25.5701V219.93L49.2951 220.31V217.455L36.0801 209.945Z" fill="#F7A99C"/>
<path d="M50.1351 220.311V218.956C50.1322 218.275 49.9447 217.607 49.5925 217.024C49.2403 216.441 48.7366 215.965 48.1351 215.646L38.1351 210.246C35.8957 210.9 33.5389 211.049 31.2351 210.681C28.6001 210.236 26.0901 209.041 25.2351 210.041C25.0382 210.305 24.9457 210.633 24.9751 210.961V219.256C24.9764 219.535 25.088 219.803 25.2855 220C25.4831 220.198 25.7507 220.309 26.0301 220.311H50.1351Z" fill="#FFC001"/>
<path d="M50.135 219.405H25" stroke="#3897E9" stroke-width="0.73" stroke-linecap="round" stroke-linejoin="round"/>
<path d="M44.5949 213.835L43.1899 215.695" stroke="#3897E9" stroke-width="0.73" stroke-linecap="round" stroke-linejoin="round"/>
<path d="M43.5652 213.256L42.1602 215.116" stroke="#3897E9" stroke-width="0.73" stroke-linecap="round" stroke-linejoin="round"/>
<path d="M42.4901 212.716L41.0801 214.576" stroke="#3897E9" stroke-width="0.73" stroke-linecap="round" stroke-linejoin="round"/>
<path d="M40.9 211.73C35.78 213.684 30.12 213.684 25 211.73" stroke="#3897E9" stroke-width="0.73" stroke-linecap="round" stroke-linejoin="round"/>
<path d="M66.0301 209.945V204.24H55.5251V219.93L79.2501 220.31V217.455L66.0301 209.945Z" fill="#F7A99C"/>
<path d="M80.0901 220.311V218.956C80.0873 218.275 79.8998 217.607 79.5476 217.024C79.1954 216.441 78.6917 215.965 78.0901 215.646L68.0901 210.246C65.8508 210.9 63.494 211.049 61.1901 210.681C58.5601 210.236 56.0451 209.041 55.1901 210.041C54.9933 210.305 54.9008 210.633 54.9302 210.961V219.256C54.9301 219.535 55.0406 219.802 55.2374 220C55.4342 220.198 55.7012 220.309 55.9802 220.311H80.0901Z" fill="#FFC001"/>
<path d="M80.0901 219.405H54.9551" stroke="#3897E9" stroke-width="0.73" stroke-linecap="round" stroke-linejoin="round"/>
<path d="M74.5501 213.835L73.1401 215.695" stroke="#3897E9" stroke-width="0.73" stroke-linecap="round" stroke-linejoin="round"/>
<path d="M73.5201 213.256L72.1101 215.116" stroke="#3897E9" stroke-width="0.73" stroke-linecap="round" stroke-linejoin="round"/>
<path d="M72.4402 212.716L71.0352 214.576" stroke="#3897E9" stroke-width="0.73" stroke-linecap="round" stroke-linejoin="round"/>
<path d="M70.8551 211.73C65.7351 213.684 60.075 213.684 54.9551 211.73" stroke="#3897E9" stroke-width="0.73" stroke-linecap="round" stroke-linejoin="round"/>
<path d="M60 128.69C60 128.69 68.65 156.19 70 159.975C71.35 163.76 72.57 169.105 72.285 173.765C72 178.425 67.5 207.14 67.5 207.14H54.5C54.5 207.14 53.58 176.805 53.135 174.43C52.69 172.055 48.89 158.605 48.89 158.605C48.89 158.605 47.63 174.335 46.585 178.5C45.54 182.665 37.17 207.595 37.17 207.595H25L30.135 128.69H60Z" fill="#3897E9"/>
<path d="M79.8501 111.94C79.8501 111.94 83.9851 108.44 85.0301 106.14C85.9251 104.18 87.1751 100.73 87.5301 99.78C87.5561 99.7106 87.6065 99.6531 87.6718 99.6181C87.7371 99.5832 87.8129 99.5732 87.8851 99.59L88.1301 99.65C88.3126 99.6923 88.4848 99.7704 88.6369 99.8798C88.7889 99.9891 88.9178 100.128 89.0159 100.287C89.1141 100.447 89.1795 100.624 89.2086 100.809C89.2376 100.994 89.2296 101.183 89.1851 101.365L88.7751 103.085L93.1401 100.22C93.3095 100.13 93.5064 100.105 93.6926 100.152C93.8789 100.198 94.0413 100.312 94.1484 100.471C94.2555 100.631 94.2996 100.824 94.2722 101.014C94.2448 101.204 94.1478 101.377 94.0001 101.5L91.1201 103.6L95.9051 101.355C96.0819 101.275 96.2818 101.264 96.4665 101.323C96.6511 101.382 96.8073 101.508 96.9051 101.675C97.0078 101.856 97.0345 102.07 96.9791 102.271C96.9238 102.472 96.7911 102.642 96.6101 102.745H96.6651C96.8846 102.669 97.1251 102.684 97.3337 102.786C97.5423 102.888 97.702 103.068 97.7776 103.288C97.8532 103.507 97.8385 103.748 97.7368 103.956C97.635 104.165 97.4546 104.324 97.2351 104.4L96.9301 104.52C97.0241 104.491 97.1231 104.482 97.2208 104.493C97.3185 104.505 97.4126 104.537 97.4971 104.588C97.5815 104.638 97.6544 104.706 97.7109 104.786C97.7674 104.867 97.8063 104.958 97.8251 105.055C97.8798 105.336 97.844 105.628 97.7227 105.887C97.6014 106.147 97.401 106.361 97.1501 106.5C95.8601 107.17 95.0251 107.345 93.8001 108.26C92.8351 108.985 93.1751 109.45 92.1401 110.76C90.8801 112.37 89.8101 112.415 87.6401 114.01C86.4806 114.881 85.4268 115.884 84.5001 117L79.8501 111.94Z" fill="#F7A99C"/>
<path d="M94.2952 100.655C94.3563 100.785 94.3702 100.932 94.3346 101.07C94.299 101.209 94.2161 101.331 94.1002 101.415C93.6802 101.735 90.4302 104.14 90.4302 104.14" stroke="#262626" stroke-width="0.41" stroke-linecap="round" stroke-linejoin="round"/>
<path d="M96.6402 102.75L92.1602 104.83" stroke="#262626" stroke-width="0.41" stroke-linecap="round" stroke-linejoin="round"/>
<path d="M97.1001 104.485L92.6001 106.555" stroke="#262626" stroke-width="0.41" stroke-linecap="round" stroke-linejoin="round"/>
<path d="M88.4301 99.7656C88.4301 99.7656 89.2151 100.266 89.1951 100.816C89.1751 101.366 88.3801 104.916 88.3801 104.916" stroke="#262626" stroke-width="0.41" stroke-linecap="round" stroke-linejoin="round"/>
<path d="M54.5001 207.14C54.5001 207.14 53.3201 176.035 53.2251 175.235C53.1301 174.435 48.7251 157.965 48.7251 157.965L49.5101 150.69C49.5101 150.69 58.4551 172.69 58.4551 174.155C58.4551 175.62 59.4551 207.155 59.4551 207.155L54.5001 207.14Z" fill="#1775AF"/>
<path d="M47.095 176.615L50.27 142.245" stroke="#262626" stroke-width="0.41" stroke-linecap="round" stroke-linejoin="round"/>
<path d="M68.005 204.5H54.375L54.48 207.14H67.505L68.005 204.5Z" fill="#262626"/>
<path d="M37.96 205.256H25.155L25 207.616H37.17L37.96 205.256Z" fill="#262626"/>
<path d="M68.8 162.695C70.5249 168.156 70.7954 173.973 69.585 179.57" stroke="white" stroke-width="0.41" stroke-linecap="round" stroke-linejoin="round"/>
<path d="M83.285 108.245C81.8799 109.28 80.2738 110.009 78.57 110.385C75.625 110.885 73.07 109.155 72.385 108.69C70.52 107.415 69.83 105.905 68.595 104.135C64.935 98.9001 62.665 95.6351 59.485 93.8051C57.84 92.8551 55.095 91.7801 50.76 92.1101C49.79 91.7651 48.26 92.0401 47.2 92.0401H44.61C42.91 92.2451 30.385 93.7001 28.255 91.7451C27.7833 91.3644 27.477 90.8162 27.4 90.2151C27.4 89.5851 27.785 88.9301 28.825 88.1401C31.36 86.2101 36.015 84.7701 37.57 84.3101L36.62 77.2051H34.53C32.435 77.2051 25.03 78.4401 21.03 79.8401C15.43 81.7951 12.43 83.2201 10.95 86.4651C9.09997 90.5301 11.075 94.9001 11.585 96.0351C14.155 101.72 19.86 104.035 23.3 105.41C25.7423 106.393 28.305 107.045 30.92 107.35L29.3 133.215L59.025 134.83H63.5C63.845 130.875 62.135 118.6 62.355 114.585C66.15 119.87 72.44 122.535 78.405 121.39C85.015 120.12 88.335 114.73 88.875 113.825C86.56 109.275 83.285 108.245 83.285 108.245Z" fill="#4450E4"/>
<path d="M46.0649 94.0254H47.9399V104.785C47.9399 105.206 47.773 105.609 47.4757 105.906C47.1785 106.203 46.7753 106.37 46.3549 106.37H46.0699V94.0254H46.0649Z" fill="white"/>
<path d="M63.535 133.465C62.5 133.655 48.44 136 38.5 125.5C30.11 116.645 31.1 105.435 31.275 103.775C30.7584 111.559 30.2367 119.34 29.71 127.12H29.68L29.3 133.215L33.96 133.465V133.435C40.91 133.985 48.0767 134.385 55.46 134.635C58.1634 134.725 60.83 134.79 63.46 134.83L63.535 133.465Z" fill="#3748C4"/>
<path d="M55.6551 82.6958C56.0551 80.7337 56.1496 78.7217 55.9351 76.7308C55.9002 75.8505 55.6177 74.9978 55.1201 74.2708C54.5028 73.457 53.617 72.8884 52.6201 72.6658C50.8201 72.3058 50.3651 73.6108 47.8051 73.9258C45.5951 74.2008 45.1601 73.3258 43.6751 73.9558C42.0551 74.6408 41.2551 76.2458 41.0101 76.7358C40.5869 77.6195 40.3519 78.5815 40.3201 79.5608C40.2944 80.4075 40.4111 81.2526 40.6651 82.0608C41.3584 84.6141 41.9142 87.2029 42.3301 89.8158L43.3651 89.7758L55.6551 82.6958Z" fill="#262626"/>
<path d="M46.9001 95.5555C45.9719 95.5555 45.0816 95.1868 44.4252 94.5304C43.7689 93.874 43.4001 92.9838 43.4001 92.0555L43.3701 84.5205H50.3701V92.0555C50.3702 92.9786 50.0055 93.8643 49.3556 94.5198C48.7057 95.1754 47.8232 95.5476 46.9001 95.5555Z" fill="#F7A99C"/>
<path d="M50.3801 89.9358L45.8201 87.5908C45.9876 88.9628 46.6791 90.217 47.7501 91.0908C48.513 91.681 49.4256 92.0463 50.3851 92.1458L50.3801 89.9358Z" fill="#69FFB7"/>
<path d="M43.185 82.1999C43.185 82.0849 42.865 81.9149 42.77 81.8549C42.6145 81.7547 42.4464 81.6756 42.27 81.6199C41.9262 81.507 41.5585 81.488 41.205 81.5649C40.8499 81.6446 40.5255 81.8253 40.2708 82.0852C40.0162 82.3452 39.8422 82.6733 39.77 83.0299C39.714 83.4517 39.7873 83.8806 39.98 84.2599C40.2534 84.8398 40.6985 85.3216 41.255 85.6399C41.7145 85.8999 42.2278 86.0505 42.755 86.0799C43.1476 86.0903 43.5404 86.0703 43.93 86.0199C43.68 84.7499 43.435 83.4999 43.185 82.1999Z" fill="#F7A99C"/>
<path d="M42.2251 82.2756C42.5779 84.4917 43.7459 86.496 45.5001 87.8956C46.0001 88.2806 49.2651 90.8456 52.2601 89.5956C56.1101 87.9856 55.6901 81.6656 55.6651 81.3256C55.5701 80.1656 55.3001 76.7556 52.4801 74.9406C51.7239 74.4668 50.8818 74.1469 50.0018 73.999C49.1219 73.8512 48.2214 73.8784 47.352 74.079C46.4826 74.2797 45.6613 74.6498 44.9351 75.1683C44.2089 75.6868 43.5921 76.3434 43.1201 77.1006C42.1964 78.6571 41.8778 80.4992 42.2251 82.2756Z" fill="#F7A99C"/>
<path d="M53.455 81.3254C53.5021 81.4596 53.5861 81.5777 53.6974 81.6662C53.8087 81.7548 53.9428 81.81 54.0841 81.8257C54.2254 81.8414 54.3683 81.8168 54.4963 81.7549C54.6243 81.6929 54.7322 81.5961 54.8076 81.4755C54.883 81.3549 54.9227 81.2154 54.9223 81.0732C54.922 80.931 54.8814 80.7918 54.8054 80.6717C54.7293 80.5515 54.6209 80.4552 54.4926 80.394C54.3642 80.3327 54.2212 80.3089 54.08 80.3254C53.8646 80.3754 53.6779 80.5087 53.5608 80.6962C53.4436 80.8837 53.4056 81.1099 53.455 81.3254Z" fill="#262626"/>
<path d="M49.0002 81.885C49.0473 82.0191 49.1313 82.1373 49.2426 82.2258C49.3539 82.3143 49.4879 82.3696 49.6293 82.3853C49.7706 82.401 49.9135 82.3764 50.0415 82.3144C50.1695 82.2525 50.2774 82.1556 50.3528 82.035C50.4281 81.9144 50.4679 81.775 50.4675 81.6328C50.4672 81.4906 50.4266 81.3514 50.3506 81.2312C50.2745 81.111 50.1661 81.0148 50.0378 80.9535C49.9094 80.8923 49.7664 80.8685 49.6252 80.885C49.5182 80.9091 49.4171 80.9542 49.3277 81.0177C49.2383 81.0811 49.1623 81.1617 49.1042 81.2547C49.0461 81.3476 49.007 81.4512 48.9891 81.5594C48.9713 81.6676 48.975 81.7782 49.0002 81.885Z" fill="#262626"/>
<path d="M52.1099 82.0654L52.7949 82.9854C52.821 83.0251 52.839 83.0695 52.8479 83.1162C52.8567 83.1629 52.8563 83.2108 52.8465 83.2573C52.8368 83.3038 52.8179 83.3478 52.791 83.387C52.7642 83.4262 52.7298 83.4596 52.6899 83.4854L52.0649 83.8654" stroke="#262626" stroke-width="0.73" stroke-linecap="round" stroke-linejoin="round"/>
<path d="M47.5001 84.2099C47.527 84.405 47.6109 84.5877 47.7412 84.7353C47.8716 84.8828 48.0426 84.9886 48.2328 85.0394C48.423 85.0902 48.624 85.0837 48.8105 85.0207C48.9971 84.9578 49.1609 84.8411 49.2814 84.6855C49.4019 84.5298 49.4738 84.342 49.4881 84.1457C49.5024 83.9493 49.4583 83.7531 49.3616 83.5817C49.2648 83.4102 49.1196 83.2712 48.9441 83.1819C48.7686 83.0927 48.5707 83.0572 48.3751 83.0799C48.2429 83.0953 48.1151 83.137 47.9992 83.2024C47.8832 83.2678 47.7816 83.3558 47.7001 83.461C47.6186 83.5662 47.5589 83.6867 47.5246 83.8153C47.4902 83.9439 47.4819 84.0781 47.5001 84.2099Z" fill="#69FFB7"/>
<path d="M42.7151 84.7301C42.7215 84.4675 42.6723 84.2066 42.5706 83.9644C42.4689 83.7223 42.317 83.5044 42.1251 83.3251C41.8009 83.0402 41.3865 82.8791 40.9551 82.8701" stroke="#262626" stroke-width="0.73" stroke-linecap="round" stroke-linejoin="round"/>
<path d="M42.1851 83.5C42.0543 83.4821 41.9212 83.495 41.7962 83.5375C41.6712 83.58 41.5579 83.6511 41.4651 83.745C41.391 83.8284 41.3343 83.9258 41.2982 84.0314C41.2622 84.137 41.2475 84.2487 41.2551 84.36" stroke="#262626" stroke-width="0.73" stroke-linecap="round" stroke-linejoin="round"/>
<path d="M42.135 81.5854C42.4602 81.6277 42.7634 81.7732 43 82.0004C43.2463 82.2875 43.4181 82.631 43.5 83.0004C45.3994 82.7743 47.1895 81.9915 48.645 80.7504C49.5108 79.9941 50.231 79.0858 50.77 78.0704C51.3228 78.5647 51.9506 78.9681 52.63 79.2654C53.775 79.7654 55.2 79.9904 55.39 79.6104C55.4038 79.3775 55.3767 79.1439 55.31 78.9204C55.2795 78.7244 55.236 78.5306 55.18 78.3404C55.0385 77.9265 54.8559 77.5279 54.635 77.1504C54.1926 76.3929 53.6107 75.7261 52.92 75.1854C52.4716 74.8382 51.981 74.5492 51.46 74.3254C50.5023 73.948 49.4739 73.7838 48.4464 73.8443C47.4188 73.9047 46.4168 74.1883 45.51 74.6754C44.1105 75.4858 42.9948 76.708 42.315 78.1754C42.0758 78.7698 41.9275 79.3968 41.875 80.0354C41.8334 80.4318 41.8691 80.8325 41.98 81.2154C42.0242 81.3417 42.0759 81.4653 42.135 81.5854Z" fill="#262626"/>
<path d="M55.115 82.6107C55.2993 82.5901 55.4858 82.6195 55.655 82.6957C55.6312 83.3324 55.5678 83.9669 55.465 84.5957C55.4317 84.5981 55.3983 84.5981 55.365 84.5957C55.0997 84.6289 54.8322 84.5553 54.6212 84.3912C54.4103 84.2271 54.2731 83.9859 54.24 83.7207C54.2068 83.4555 54.2804 83.188 54.4445 82.977C54.6086 82.766 54.8497 82.6289 55.115 82.5957V82.6107Z" fill="#69FFB7"/>
<path d="M47.7 74.2106C47.37 74.0856 46.89 73.9106 46.295 73.7406C44.995 73.3656 44.345 73.1806 43.75 73.2406C42.02 73.4656 41.02 75.7406 40.605 76.7056C40.0625 77.7868 39.8669 79.0091 40.045 80.2056C40.1469 80.7579 40.3342 81.2909 40.6 81.7856" stroke="#262626" stroke-width="0.25" stroke-linecap="round" stroke-linejoin="round"/>
<path d="M47.7 74.0005C48.285 73.7455 48.9099 73.5355 49.4749 73.2455C50.0358 72.8934 50.6186 72.5778 51.22 72.3005C51.8824 72.0264 52.616 71.9755 53.31 72.1555C53.8924 72.3572 54.4103 72.7111 54.81 73.1805C55.3714 73.7905 55.7823 74.5233 56.0099 75.3205C56.4349 76.8505 56.055 78.4505 55.805 79.9755" stroke="#262626" stroke-width="0.25" stroke-linecap="round" stroke-linejoin="round"/>
<path d="M52.8651 86.0007C52.9073 86.2241 52.8795 86.4551 52.7856 86.6622C52.6917 86.8693 52.5362 87.0423 52.3403 87.1577C52.1444 87.2732 51.9177 87.3253 51.691 87.3072C51.4644 87.289 51.2488 87.2014 51.0738 87.0562C50.8988 86.911 50.7729 86.7154 50.7131 86.496C50.6534 86.2767 50.6628 86.0442 50.74 85.8303C50.8173 85.6165 50.9586 85.4317 51.1447 85.3011C51.3309 85.1705 51.5528 85.1005 51.7801 85.1007C52.0432 85.077 52.3049 85.1584 52.5082 85.327C52.7115 85.4956 52.8398 85.7378 52.8651 86.0007Z" fill="white"/>
<path d="M36.7852 78.4253L38.7852 77.2053C38.7852 77.2053 39.1952 75.4453 39.7502 75.0703C40.3052 74.6953 43.2502 73.5703 43.2502 73.5703L43.6802 73.9753C43.6802 73.9753 41.3702 76.0853 40.8902 77.0203C40.4102 77.9553 40.3252 80.5653 40.3252 80.5653L38.0652 83.4903L37.5102 83.9053L36.7852 78.4253Z" fill="#F7A99C"/>
<path d="M31.2751 104.915L30.2251 118.43" stroke="#262626" stroke-width="0.41" stroke-linecap="round" stroke-linejoin="round"/>
<path d="M61.8301 106.021L62.6351 120.931" stroke="#262626" stroke-width="0.41" stroke-linecap="round" stroke-linejoin="round"/>
<path d="M15.645 84.7305C14.8001 85.3977 14.1019 86.232 13.5939 87.1813C13.086 88.1305 12.7793 89.1743 12.6929 90.2475C12.6066 91.3206 12.7425 92.4 13.0921 93.4183C13.4418 94.4365 13.9977 95.3717 14.725 96.1655" stroke="white" stroke-width="0.41" stroke-linecap="round" stroke-linejoin="round"/>
<path d="M67 115.58C68.6145 117.381 70.8062 118.563 73.1981 118.923C75.59 119.282 78.0324 118.797 80.105 117.55" stroke="white" stroke-width="0.41" stroke-linecap="round" stroke-linejoin="round"/>
<path d="M161.47 127.42L166.105 124.92L173 126.205L176.44 122.535L184.58 124.715L189.11 118.525L197.18 123.5L194.43 106L183.76 98.5254L159.26 102.385C158.819 102.456 158.424 102.697 158.16 103.058C157.897 103.419 157.787 103.869 157.855 104.31L161.47 127.42Z" fill="#F5F5F5"/>
<path d="M186.25 107.285L194.43 106L183.76 98.5254L185 106.37C185.022 106.513 185.072 106.649 185.146 106.772C185.221 106.895 185.319 107.002 185.435 107.087C185.552 107.172 185.683 107.233 185.823 107.267C185.963 107.301 186.108 107.307 186.25 107.285Z" fill="#D6D6D6"/>
<path d="M183.76 98.5254L185 106.37C185.022 106.513 185.072 106.65 185.147 106.773C185.222 106.897 185.321 107.004 185.437 107.089C185.554 107.174 185.686 107.235 185.826 107.269C185.967 107.303 186.112 107.308 186.255 107.285L194.43 106" stroke="#262626" stroke-width="0.27" stroke-linecap="round" stroke-linejoin="round"/>
<path d="M164.775 150.376C164.809 150.594 164.886 150.804 165.001 150.993C165.117 151.181 165.268 151.345 165.447 151.475C165.626 151.605 165.829 151.699 166.044 151.751C166.259 151.802 166.482 151.811 166.7 151.776L198.83 146.721C199.271 146.651 199.666 146.409 199.928 146.048C200.191 145.687 200.299 145.237 200.23 144.796L197.18 125.431L189.095 120.471L184.565 126.666L176.425 124.501L173 128.156L166.12 126.891L161.485 129.391L164.775 150.376Z" fill="#F5F5F5"/>
<path d="M161.5 127.42L166.14 124.92L173 126.205L176.44 122.535L184.58 124.715L189.11 118.525L197.19 123.5L194.435 106L183.765 98.5254L159.265 102.385C158.824 102.455 158.429 102.698 158.167 103.058C157.905 103.419 157.796 103.87 157.865 104.31L161.5 127.42Z" stroke="#262626" stroke-width="0.27" stroke-linecap="round" stroke-linejoin="round"/>
<path d="M164.78 150.376C164.85 150.816 165.092 151.211 165.453 151.474C165.814 151.736 166.264 151.845 166.705 151.776L198.835 146.721C199.054 146.687 199.263 146.61 199.452 146.494C199.641 146.379 199.805 146.228 199.935 146.049C200.065 145.87 200.158 145.667 200.21 145.452C200.261 145.237 200.27 145.014 200.235 144.796L197.19 125.431L189.1 120.471L184.57 126.666L176.43 124.501L173 128.156L166.125 126.891L161.485 129.391L164.78 150.376Z" stroke="#262626" stroke-width="0.27" stroke-linecap="round" stroke-linejoin="round"/>
<path d="M37.1801 73.05L36.3701 73.825L29.1951 67.345L31.2601 65.375L37.1801 73.05Z" fill="#F98565"/>
<path d="M38.9551 71.7205L37.8501 71.9255L35.3901 62.5805L38.1951 62.0605L38.9551 71.7205Z" fill="#F98565"/>
<path d="M35.1301 74.8107L35.0401 75.9307L25.3701 75.8557L25.6051 73.0107L35.1301 74.8107Z" fill="#F98565"/>
<path d="M150.605 216.53C150.028 215.963 149.569 215.289 149.253 214.545C148.937 213.8 148.771 213.001 148.764 212.193C148.757 211.385 148.91 210.583 149.213 209.833C149.516 209.084 149.963 208.401 150.53 207.825L178.875 179L187.66 187.63L159.31 216.475C158.742 217.05 158.066 217.508 157.322 217.822C156.577 218.136 155.777 218.3 154.969 218.306C154.161 218.311 153.359 218.156 152.61 217.852C151.862 217.547 151.18 217.098 150.605 216.53Z" fill="#253368"/>
<path opacity="0.2" d="M200.745 190.48C214.494 190.48 225.64 179.335 225.64 165.585C225.64 151.836 214.494 140.69 200.745 140.69C186.996 140.69 175.85 151.836 175.85 165.585C175.85 179.335 186.996 190.48 200.745 190.48Z" fill="#DCF0FF"/>
<path opacity="0.5" d="M177.825 173.906C178.677 176.175 179.856 178.308 181.325 180.236L226 164.786C225.965 162.359 225.578 159.951 224.85 157.636L177.825 173.906Z" fill="white"/>
<path opacity="0.5" d="M176.285 166.775C176.376 168.191 176.591 169.596 176.925 170.975L223.76 154.775C223.17 153.484 222.471 152.247 221.67 151.075L176.285 166.775Z" fill="white"/>
<path d="M221.26 144.635C217.207 140.651 212.063 137.958 206.48 136.898C200.897 135.837 195.124 136.455 189.892 138.675C184.66 140.895 180.204 144.617 177.088 149.37C173.971 154.122 172.334 159.692 172.383 165.375C172.432 171.058 174.165 176.599 177.363 181.297C180.561 185.995 185.08 189.64 190.35 191.769C195.619 193.899 201.401 194.418 206.966 193.261C212.53 192.104 217.626 189.323 221.61 185.27C226.952 179.835 229.916 172.501 229.851 164.88C229.785 157.26 226.695 149.977 221.26 144.635ZM184.535 182C181.198 178.72 178.908 174.524 177.955 169.942C177.003 165.361 177.43 160.6 179.184 156.261C180.937 151.923 183.937 148.201 187.805 145.568C191.674 142.935 196.236 141.508 200.915 141.467C205.594 141.426 210.18 142.774 214.094 145.34C218.007 147.906 221.071 151.575 222.9 155.882C224.728 160.19 225.238 164.943 224.365 169.54C223.492 174.137 221.275 178.373 217.995 181.71C215.817 183.926 213.224 185.692 210.364 186.906C207.504 188.12 204.432 188.758 201.325 188.785C198.218 188.812 195.136 188.227 192.255 187.063C189.374 185.898 186.751 184.178 184.535 182Z" fill="#253368"/>
<path d="M180.865 190.266L158.45 213.071" stroke="white" stroke-linecap="round" stroke-linejoin="round"/>
<path d="M203.18 138.46C199.638 138.103 196.06 138.5 192.682 139.625C189.303 140.749 186.201 142.575 183.579 144.984C180.957 147.392 178.874 150.328 177.467 153.598C176.06 156.869 175.36 160.4 175.415 163.96" stroke="white" stroke-linecap="round" stroke-linejoin="round"/>
</svg>
