<svg width="45" height="45" viewBox="0 0 45 45" fill="none" xmlns="http://www.w3.org/2000/svg">
<path d="M10.7153 34.1624H13.0843C13.1238 34.1624 13.1579 34.1485 13.1869 34.1194C13.2157 34.0903 13.2299 34.0562 13.2299 34.017V33.6335C13.2299 33.5943 13.2157 33.5602 13.1869 33.5311C13.1579 33.502 13.1238 33.4881 13.0843 33.4881H11.2979V32.5921H12.9225C12.962 32.5921 12.9961 32.5776 13.0249 32.5491C13.0536 32.5201 13.0681 32.4859 13.0681 32.4461V32.0632C13.0681 32.0234 13.0536 31.9893 13.0249 31.9608C12.9961 31.9318 12.962 31.9172 12.9225 31.9172H11.2979V31.0591H13.0413C13.0808 31.0591 13.1149 31.0452 13.1437 31.0162C13.1724 30.9877 13.1869 30.953 13.1869 30.9138V30.5302C13.1869 30.4911 13.1724 30.4569 13.1437 30.4279C13.1149 30.3994 13.0808 30.3849 13.0413 30.3849H10.7153C10.6755 30.3849 10.6414 30.3994 10.6126 30.4279C10.5839 30.4569 10.5693 30.4911 10.5693 30.5302V34.017C10.5693 34.0562 10.5839 34.0903 10.6126 34.1194C10.6414 34.1485 10.6755 34.1624 10.7153 34.1624ZM14.1556 33.933C14.2975 34.0246 14.4605 34.0948 14.6441 34.1434C14.8273 34.1921 15.0198 34.2167 15.2213 34.2167C15.4624 34.2167 15.6801 34.1876 15.8744 34.1301C16.0687 34.0726 16.2324 33.9943 16.3654 33.8951C16.4987 33.7965 16.6011 33.6777 16.6731 33.5393C16.7451 33.4009 16.7812 33.2505 16.7812 33.0888C16.7812 32.9409 16.7568 32.8095 16.7082 32.6945C16.6595 32.5795 16.5859 32.4777 16.487 32.3899C16.3878 32.3014 16.2602 32.2262 16.1038 32.1631C15.9474 32.0999 15.761 32.0455 15.5452 31.9981C15.3474 31.9552 15.1818 31.9173 15.0488 31.885C14.9155 31.8528 14.8087 31.8174 14.7275 31.7801C14.6466 31.7422 14.5891 31.6974 14.555 31.6449C14.5206 31.5931 14.5035 31.5255 14.5035 31.4427C14.5035 31.3745 14.5215 31.3132 14.5575 31.2588C14.5935 31.2051 14.6432 31.159 14.706 31.1217C14.7689 31.0838 14.8428 31.0547 14.9272 31.0351C15.0119 31.0155 15.101 31.0054 15.1945 31.0054C15.4103 31.0054 15.573 31.0389 15.6829 31.1053C15.7926 31.1716 15.8744 31.25 15.9284 31.3397C15.9534 31.3795 15.9815 31.4111 16.0121 31.4345C16.0425 31.4579 16.0883 31.4692 16.1496 31.4692H16.5275C16.5669 31.4692 16.602 31.456 16.6327 31.4288C16.6633 31.4023 16.6766 31.3669 16.6731 31.3239C16.6658 31.2196 16.6308 31.1091 16.5679 30.9922C16.505 30.8753 16.4121 30.7678 16.2899 30.6705C16.1676 30.5738 16.0147 30.493 15.8311 30.4279C15.6479 30.3634 15.4355 30.3306 15.1945 30.3306C14.9929 30.3306 14.8049 30.359 14.6305 30.4146C14.4558 30.4702 14.3057 30.5467 14.18 30.644C14.0539 30.7407 13.955 30.8582 13.883 30.9947C13.811 31.1312 13.7749 31.2809 13.7749 31.4427C13.7749 31.6045 13.7967 31.7441 13.8397 31.861C13.883 31.9779 13.9487 32.0796 14.0369 32.1656C14.125 32.2521 14.2365 32.3248 14.3714 32.3842C14.5064 32.4436 14.6637 32.4948 14.8438 32.5384C15.0416 32.5883 15.216 32.63 15.367 32.6622C15.5183 32.6945 15.645 32.7286 15.7477 32.7646C15.8501 32.8006 15.9265 32.8442 15.9771 32.8941C16.0273 32.9447 16.0526 33.0092 16.0526 33.0888C16.0526 33.1715 16.0292 33.2404 15.9824 33.296C15.9357 33.3523 15.8744 33.399 15.7989 33.4369C15.7234 33.4742 15.6352 33.5014 15.5344 33.5178C15.4337 33.5336 15.3294 33.5418 15.2213 33.5418C15.0845 33.5418 14.9705 33.5305 14.8788 33.5071C14.7869 33.4837 14.7104 33.454 14.6495 33.418C14.5882 33.382 14.5395 33.3403 14.5035 33.2935C14.4675 33.2467 14.4371 33.2 14.4119 33.1532C14.3904 33.1102 14.3632 33.078 14.331 33.0559C14.2985 33.0344 14.2517 33.0237 14.1907 33.0237H13.8128C13.7733 33.0237 13.7383 33.0376 13.7076 33.0641C13.677 33.0913 13.6634 33.126 13.6672 33.1697C13.6779 33.3276 13.7266 33.4717 13.8128 33.6012C13.8991 33.7308 14.0135 33.8414 14.1556 33.933ZM17.6529 33.933C17.7947 34.0246 17.9577 34.0948 18.1413 34.1434C18.3246 34.1921 18.517 34.2167 18.7185 34.2167C18.9596 34.2167 19.1773 34.1876 19.3716 34.1301C19.5659 34.0726 19.7296 33.9943 19.8626 33.8951C19.9959 33.7965 20.0983 33.6777 20.1703 33.5393C20.2424 33.4009 20.2784 33.2505 20.2784 33.0888C20.2784 32.9409 20.254 32.8095 20.2054 32.6945C20.1567 32.5795 20.0831 32.4777 19.9842 32.3899C19.885 32.3014 19.7574 32.2262 19.601 32.1631C19.4446 32.0999 19.2582 32.0455 19.0424 31.9981C18.8446 31.9552 18.6791 31.9173 18.546 31.885C18.4127 31.8528 18.3059 31.8174 18.2247 31.7801C18.1438 31.7422 18.0863 31.6974 18.0522 31.6449C18.0178 31.5931 18.0007 31.5255 18.0007 31.4427C18.0007 31.3745 18.0187 31.3132 18.0547 31.2588C18.0908 31.2051 18.1404 31.159 18.2032 31.1217C18.2661 31.0838 18.34 31.0547 18.4244 31.0351C18.5091 31.0155 18.5982 31.0054 18.6917 31.0054C18.9075 31.0054 19.0702 31.0389 19.1801 31.1053C19.2898 31.1716 19.3716 31.25 19.4256 31.3397C19.4506 31.3795 19.4787 31.4111 19.5094 31.4345C19.5397 31.4579 19.5855 31.4692 19.6468 31.4692H20.0247C20.0642 31.4692 20.0992 31.456 20.1299 31.4288C20.1605 31.4023 20.1738 31.3669 20.1703 31.3239C20.163 31.2196 20.128 31.1091 20.0651 30.9922C20.0022 30.8753 19.9093 30.7678 19.7871 30.6705C19.6648 30.5738 19.5119 30.493 19.3283 30.4279C19.1451 30.3634 18.9328 30.3306 18.6917 30.3306C18.4901 30.3306 18.3021 30.359 18.1277 30.4146C17.953 30.4702 17.8029 30.5467 17.6772 30.644C17.5511 30.7407 17.4522 30.8582 17.3802 30.9947C17.3082 31.1312 17.2721 31.2809 17.2721 31.4427C17.2721 31.6045 17.2939 31.7441 17.3369 31.861C17.3802 31.9779 17.4459 32.0796 17.5341 32.1656C17.6222 32.2521 17.7337 32.3248 17.8687 32.3842C18.0036 32.4436 18.1609 32.4948 18.341 32.5384C18.5388 32.5883 18.7132 32.63 18.8642 32.6622C19.0155 32.6945 19.1422 32.7286 19.2449 32.7646C19.3473 32.8006 19.4237 32.8442 19.4743 32.8941C19.5245 32.9447 19.5498 33.0092 19.5498 33.0888C19.5498 33.1715 19.5264 33.2404 19.4797 33.296C19.4329 33.3523 19.3716 33.399 19.2961 33.4369C19.2206 33.4742 19.1324 33.5014 19.0316 33.5178C18.9309 33.5336 18.8266 33.5418 18.7185 33.5418C18.5817 33.5418 18.4677 33.5305 18.3761 33.5071C18.2841 33.4837 18.2077 33.454 18.1467 33.418C18.0854 33.382 18.0367 33.3403 18.0007 33.2935C17.9647 33.2467 17.9344 33.2 17.9091 33.1532C17.8876 33.1102 17.8604 33.078 17.8282 33.0559C17.7957 33.0344 17.7489 33.0237 17.6879 33.0237H17.3101C17.2706 33.0237 17.2355 33.0376 17.2048 33.0641C17.1742 33.0913 17.1606 33.126 17.1644 33.1697C17.1751 33.3276 17.2238 33.4717 17.3101 33.6012C17.3963 33.7308 17.5107 33.8414 17.6529 33.933Z" fill="#00A7E1"/>
<path d="M39.3864 12.4353C39.3864 12.4309 39.3841 12.427 39.3839 12.4227C39.3826 12.3661 39.3717 12.3115 39.3514 12.2587C39.3495 12.2541 39.3484 12.2495 39.3463 12.245C39.3224 12.1886 39.2918 12.1347 39.2468 12.0897L31.8231 4.66619L29.0401 1.88144C29.0322 1.87346 29.021 1.87038 29.0125 1.86296C28.9793 1.83421 28.9439 1.80964 28.9052 1.79124C28.8833 1.78065 28.861 1.77433 28.8376 1.76722C28.8065 1.75774 28.7754 1.75158 28.7431 1.74843C28.7273 1.74684 28.713 1.73926 28.697 1.73926H10.6634C9.23247 1.73926 8.06853 2.90321 8.06853 4.33381V27.1578H7.39367C6.41234 27.1578 5.61426 27.9559 5.61426 28.9372V35.8261C5.61426 36.8074 6.41234 37.6055 7.39367 37.6055H8.06853V40.5628C8.06853 41.9902 9.23248 43.151 10.6634 43.151H36.7982C38.2253 43.151 39.3864 41.9902 39.3864 40.5628V12.4803C39.3867 12.4776 39.3861 12.4748 39.3864 12.472V12.4353ZM29.1823 3.39798L30.8774 5.09303L37.7276 11.9475H30.8044C29.9099 11.9475 29.1823 11.2202 29.1823 10.3261V3.39798ZM6.58485 35.8261V28.9372C6.58485 28.4911 6.94755 28.1284 7.39367 28.1284H23.0441C23.5995 28.1284 24.0516 28.5808 24.0516 29.1363V35.6277C24.0516 36.1831 23.5995 36.6349 23.0441 36.6349H7.39367C6.94755 36.6349 6.58485 36.2722 6.58485 35.8261ZM36.7982 42.1804H10.6634C9.76769 42.1804 9.03912 41.455 9.03912 40.5628V37.6055H23.0441C24.1347 37.6055 25.0222 36.7183 25.0222 35.6277V29.1363C25.0222 28.0456 24.1347 27.1578 23.0441 27.1578H9.03912V4.33381C9.03912 3.43842 9.7677 2.70985 10.6634 2.70985H28.2117V10.3261C28.2117 11.7554 29.3747 12.9181 30.8044 12.9181H38.4158V40.5628C38.4158 41.455 37.6901 42.1804 36.7982 42.1804Z" fill="#00A7E1"/>
<path d="M32.01 18.8045H15.4453C15.1773 18.8045 14.96 19.0219 14.96 19.2898C14.96 19.5577 15.1773 19.7751 15.4453 19.7751H32.01C32.2779 19.7751 32.4953 19.5577 32.4953 19.2898C32.4953 19.0219 32.2779 18.8045 32.01 18.8045ZM15.4453 16.0033H23.7278C23.9957 16.0033 24.2131 15.7859 24.2131 15.518C24.2131 15.2501 23.9957 15.0327 23.7278 15.0327H15.4453C15.1773 15.0327 14.96 15.2501 14.96 15.518C14.96 15.7859 15.1773 16.0033 15.4453 16.0033ZM32.01 22.5769H15.4453C15.1773 22.5769 14.96 22.7943 14.96 23.0622C14.96 23.3301 15.1773 23.5475 15.4453 23.5475H32.01C32.2779 23.5475 32.4953 23.3301 32.4953 23.0622C32.4953 22.7943 32.2779 22.5769 32.01 22.5769Z" fill="#00A7E1"/>
</svg>
