<svg width="49" height="51" viewBox="0 0 49 51" fill="none" xmlns="http://www.w3.org/2000/svg">
<g clip-path="url(#clip0_298_963)">
<path d="M48.004 20.7185H44.4055C43.8966 18.405 43.0193 16.1964 41.8101 14.1842L44.3443 11.5465C44.437 11.4505 44.5105 11.3362 44.5604 11.2103C44.6104 11.0845 44.6358 10.9495 44.6352 10.8134C44.6371 10.677 44.6123 10.5417 44.5623 10.4156C44.5122 10.2896 44.4381 10.1755 44.3443 10.0803L39.2912 4.83682C39.1007 4.64965 38.8487 4.54538 38.5868 4.54538C38.3249 4.54538 38.0729 4.64965 37.8824 4.83682L35.3482 7.47448C33.4212 6.22162 31.3072 5.31136 29.093 4.78104V1.03573C29.092 0.897958 29.0649 0.761758 29.013 0.634979C28.9612 0.5082 28.8858 0.393349 28.7912 0.297047C28.6965 0.200746 28.5845 0.124899 28.4615 0.0738806C28.3386 0.022862 28.2071 -0.00231965 28.0748 -0.000212383H20.9238C20.7912 -0.00339877 20.6593 0.0210425 20.5359 0.0716748C20.4125 0.122307 20.3 0.198108 20.2051 0.294623C20.1103 0.391138 20.0349 0.506419 19.9834 0.633688C19.932 0.760958 19.9055 0.897649 19.9055 1.03573V4.78104C17.6827 5.31075 15.5607 6.22382 13.6274 7.48244L11.1162 4.83682C11.0237 4.74044 10.9139 4.66398 10.7931 4.61181C10.6722 4.55965 10.5426 4.53279 10.4118 4.53279C10.2809 4.53279 10.1514 4.55965 10.0305 4.61181C9.90965 4.66398 9.79986 4.74044 9.70741 4.83682L4.64663 10.1042C4.55285 10.1994 4.47868 10.3135 4.42866 10.4396C4.37864 10.5656 4.35381 10.7009 4.35569 10.8373C4.35512 10.9735 4.38054 11.1084 4.43049 11.2342C4.48043 11.3601 4.5539 11.4744 4.64663 11.5704L7.18085 14.2081C5.97788 16.2141 5.10338 18.4142 4.59304 20.7185H0.994601C0.861939 20.7185 0.730609 20.7461 0.60833 20.7996C0.486052 20.8532 0.375292 20.9316 0.282562 21.0304C0.189832 21.1291 0.117003 21.2461 0.0683566 21.3746C0.0197099 21.5031 -0.00377291 21.6403 -0.000711484 21.7784V29.2212C-0.00273611 29.3589 0.021458 29.4958 0.0704759 29.6237C0.119494 29.7517 0.192366 29.8683 0.284891 29.9668C0.377416 30.0654 0.487763 30.1439 0.609571 30.1978C0.731378 30.2517 0.862236 30.28 0.994601 30.281H4.59304C5.10333 32.5916 5.98054 34.7974 7.18851 36.8074L4.64663 39.4292C4.55403 39.5254 4.48057 39.6397 4.43045 39.7655C4.38033 39.8913 4.35453 40.0261 4.35453 40.1623C4.35453 40.2985 4.38033 40.4333 4.43045 40.5591C4.48057 40.6849 4.55403 40.7992 4.64663 40.8954L9.70741 46.1628C9.79986 46.2591 9.90965 46.3356 10.0305 46.3878C10.1514 46.4399 10.2809 46.4668 10.4118 46.4668C10.5426 46.4668 10.6722 46.4399 10.7931 46.3878C10.9139 46.3356 11.0237 46.2591 11.1162 46.1628L13.6504 43.5251C15.5771 44.7785 17.6912 45.6888 19.9055 46.2185V49.9639C19.9055 50.2386 20.0104 50.5021 20.1971 50.6964C20.3837 50.8907 20.6369 50.9998 20.9009 50.9998H28.0518C28.186 51.0051 28.32 50.9823 28.4456 50.9328C28.5712 50.8832 28.686 50.8079 28.7831 50.7113C28.8802 50.6146 28.9577 50.4987 29.011 50.3703C29.0642 50.2419 29.0921 50.1037 29.093 49.9639V46.2185C31.313 45.6874 33.4323 44.7744 35.3635 43.5171L37.8977 46.1548C38.0882 46.342 38.3402 46.4462 38.6021 46.4462C38.864 46.4462 39.116 46.342 39.3065 46.1548L44.3673 40.8874C44.4599 40.7912 44.5333 40.677 44.5834 40.5512C44.6336 40.4254 44.6594 40.2905 44.6594 40.1543C44.6594 40.0181 44.6336 39.8833 44.5834 39.7575C44.5333 39.6317 44.4599 39.5174 44.3673 39.4212L41.833 36.7835C43.0306 34.7793 43.9 32.5819 44.4055 30.281H48.004C48.1363 30.28 48.2672 30.2517 48.389 30.1978C48.5108 30.1439 48.6212 30.0654 48.7137 29.9668C48.8062 29.8683 48.8791 29.7517 48.9281 29.6237C48.9771 29.4958 49.0013 29.3589 48.9993 29.2212V21.7784C49.0023 21.6403 48.9789 21.5031 48.9302 21.3746C48.8816 21.2461 48.8087 21.1291 48.716 21.0304C48.6233 20.9316 48.5125 20.8532 48.3902 20.7996C48.268 20.7461 48.1366 20.7185 48.004 20.7185ZM47.514 28.6873H44.0151C43.7904 28.6864 43.572 28.7646 43.3954 28.9093C43.2189 29.054 43.0946 29.2566 43.0427 29.4842C42.5655 31.8908 41.6535 34.1812 40.3554 36.2337C40.2319 36.4333 40.1775 36.6708 40.2012 36.9069C40.2249 37.1431 40.3252 37.3638 40.4855 37.5326L42.9585 40.1065L38.5868 44.7124L36.1138 42.1385C35.9516 41.9716 35.7396 41.8672 35.5127 41.8426C35.2858 41.818 35.0577 41.8746 34.8659 42.0031C32.8931 43.3529 30.6928 44.3019 28.381 44.8001C28.1624 44.8541 27.9677 44.9835 27.8287 45.1672C27.6897 45.351 27.6145 45.5783 27.6154 45.8121V49.4539H21.4368V45.8121C21.4377 45.5783 21.3625 45.351 21.2235 45.1672C21.0845 44.9835 20.8898 44.8541 20.6712 44.8001C18.3574 44.3005 16.1548 43.3516 14.1787 42.0031C13.988 41.8752 13.7612 41.8189 13.5356 41.8436C13.31 41.8682 13.0993 41.9723 12.9384 42.1385L10.4118 44.7124L6.04007 40.1623L8.51304 37.5884C8.67668 37.4232 8.77936 37.2035 8.80315 36.9675C8.82694 36.7315 8.77033 36.4944 8.6432 36.2974C7.34758 34.2406 6.4359 31.9481 5.95585 29.5399C5.904 29.3124 5.77969 29.1098 5.60314 28.9651C5.4266 28.8204 5.20821 28.7422 4.98351 28.7431H1.4846V22.3123H4.98351C5.20786 22.3118 5.42558 22.233 5.60185 22.0886C5.77812 21.9441 5.90276 21.7423 5.95585 21.5154C6.4359 19.1072 7.34758 16.8147 8.6432 14.7579C8.76606 14.5595 8.82013 14.3234 8.79646 14.0886C8.77279 13.8538 8.6728 13.6345 8.51304 13.467L6.04007 10.8373L10.4118 6.28713L12.8848 8.86104C13.0462 9.02927 13.2584 9.13456 13.4856 9.15923C13.7129 9.1839 13.9414 9.12644 14.1327 8.99651C16.1055 7.64673 18.3058 6.69769 20.6176 6.19948C20.8362 6.14551 21.0309 6.01612 21.1699 5.83237C21.3089 5.64862 21.3841 5.42132 21.3832 5.18744V1.54573H27.5618V5.18744C27.5609 5.42132 27.6361 5.64862 27.7751 5.83237C27.9141 6.01612 28.1088 6.14551 28.3274 6.19948C30.6412 6.69912 32.8437 7.64801 34.8199 8.99651C35.0101 9.12583 35.2373 9.18297 35.4632 9.1583C35.6891 9.13362 35.9 9.02864 36.0602 8.86104L38.5868 6.28713L42.9585 10.8373L40.4779 13.4112C40.3211 13.5824 40.2239 13.8033 40.2017 14.0387C40.1796 14.2741 40.2336 14.5104 40.3554 14.7101C41.6535 16.7626 42.5655 19.053 43.0427 21.4596C43.0946 21.6872 43.2189 21.8898 43.3954 22.0345C43.572 22.1792 43.7904 22.2574 44.0151 22.2565H47.514V28.6873Z" fill="#FFDC3C"/>
<path d="M24.5004 9.23584C21.4098 9.23584 18.3886 10.1897 15.8189 11.9769C13.2491 13.764 11.2462 16.3041 10.0635 19.276C8.88079 22.2479 8.57134 25.5181 9.17429 28.673C9.77724 31.828 11.2655 34.726 13.4509 37.0006C15.6363 39.2752 18.4206 40.8242 21.4519 41.4518C24.4831 42.0793 27.6251 41.7572 30.4804 40.5262C33.3358 39.2952 35.7763 37.2106 37.4933 34.536C39.2104 31.8613 40.1268 28.7168 40.1268 25.5001C40.1208 21.1885 38.4725 17.0553 35.5433 14.0065C32.6141 10.9577 28.643 9.24216 24.5004 9.23584ZM24.5004 40.2183C21.7036 40.2183 18.9696 39.3551 16.6441 37.7379C14.3186 36.1206 12.5061 33.8219 11.4358 31.1325C10.3655 28.4431 10.0854 25.4837 10.6311 22.6287C11.1767 19.7736 12.5235 17.1511 14.5012 15.0927C16.4788 13.0343 18.9985 11.6325 21.7416 11.0646C24.4847 10.4967 27.3281 10.7881 29.912 11.9021C32.4959 13.0161 34.7045 14.9026 36.2583 17.323C37.8122 19.7434 38.6415 22.5891 38.6415 25.5001C38.6355 29.4016 37.1436 33.1416 34.493 35.9005C31.8423 38.6593 28.249 40.212 24.5004 40.2183Z" fill="#FFDC3C"/>
<path d="M27.394 24.703H21.8279C20.5696 24.7051 19.3634 25.2263 18.4736 26.1524C17.5838 27.0785 17.0831 28.3339 17.0811 29.6436V34.4249C17.081 34.7595 17.2083 35.0806 17.4349 35.318C17.6615 35.5554 17.9692 35.6898 18.2907 35.6919H30.9312C31.0911 35.6929 31.2496 35.6612 31.3977 35.5985C31.5457 35.5358 31.6805 35.4433 31.7943 35.3264C31.908 35.2095 31.9985 35.0704 32.0606 34.9171C32.1227 34.7638 32.1552 34.5992 32.1562 34.4328V29.6516C32.1562 29.0011 32.033 28.3569 31.7936 27.756C31.5541 27.1551 31.2032 26.6092 30.7609 26.1496C30.3186 25.69 29.7936 25.3256 29.2159 25.0774C28.6381 24.8292 28.019 24.7019 27.394 24.703ZM30.6632 34.1539H28.9636V29.9066C28.9221 29.7343 28.8265 29.5813 28.6919 29.4721C28.5573 29.3628 28.3916 29.3034 28.2209 29.3034C28.0502 29.3034 27.8845 29.3628 27.7499 29.4721C27.6153 29.5813 27.5197 29.7343 27.4782 29.9066V34.1539H21.7437V29.9066C21.7022 29.7343 21.6066 29.5813 21.4721 29.4721C21.3375 29.3628 21.1717 29.3034 21.0011 29.3034C20.8304 29.3034 20.6646 29.3628 20.5301 29.4721C20.3955 29.5813 20.2999 29.7343 20.2584 29.9066V34.1539H18.5664V29.6436C18.5664 28.7433 18.91 27.8798 19.5217 27.2432C20.1333 26.6066 20.9629 26.2489 21.8279 26.2489H27.394C28.2597 26.2489 29.0901 26.6063 29.703 27.2427C30.3159 27.8791 30.6612 28.7426 30.6632 29.6436V34.1539ZM24.6148 24.2886C25.4813 24.2886 26.3283 24.0211 27.0486 23.5199C27.769 23.0187 28.3303 22.3063 28.6615 21.473C28.9928 20.6396 29.0791 19.7227 28.9095 18.8383C28.7399 17.9539 28.322 17.1417 27.7088 16.5046C27.0955 15.8674 26.3145 15.434 25.4645 15.259C24.6145 15.084 23.7337 15.1754 22.9336 15.5216C22.1335 15.8678 21.4501 16.4533 20.9698 17.2039C20.4895 17.9546 20.2339 18.8366 20.2354 19.7385C20.2354 20.3367 20.3488 20.929 20.5689 21.4816C20.7891 22.0341 21.1118 22.5361 21.5186 22.9587C21.9253 23.3814 22.4082 23.7163 22.9395 23.9445C23.4708 24.1727 24.0401 24.2897 24.6148 24.2886ZM24.6148 16.7263C25.1872 16.7263 25.7467 16.9029 26.2227 17.2339C26.6986 17.5649 27.0695 18.0353 27.2886 18.5857C27.5076 19.1361 27.5649 19.7418 27.4533 20.3261C27.3416 20.9104 27.066 21.4471 26.6612 21.8684C26.2565 22.2897 25.7408 22.5765 25.1794 22.6928C24.618 22.809 24.0361 22.7493 23.5073 22.5214C22.9785 22.2934 22.5265 21.9073 22.2085 21.4119C21.8905 20.9166 21.7207 20.3342 21.7207 19.7385C21.7207 19.3433 21.7957 18.952 21.9412 18.587C22.0867 18.2219 22.3 17.8904 22.5689 17.6113C22.8377 17.3323 23.1568 17.1111 23.5079 16.9606C23.859 16.8101 24.2351 16.7332 24.6148 16.7342V16.7263Z" fill="#FFDC3C"/>
</g>
<defs>
<clipPath id="clip0_298_963">
<rect width="49" height="51" fill="white"/>
</clipPath>
</defs>
</svg>
