<svg width="54" height="52" viewBox="0 0 54 52" fill="none" xmlns="http://www.w3.org/2000/svg">
<path d="M14.5963 22.2718C14.8783 21.3756 15.2454 21.0947 16.0954 21.0947C16.2045 21.0947 16.3135 21.0947 16.4213 21.0947C16.9773 21.1312 17.3843 21.0694 17.7821 20.4639C18.6853 19.0887 20.626 19.3191 21.3882 20.8039C21.5039 21.03 21.621 21.1129 21.8564 21.1003C22.2408 21.0792 22.6279 21.089 23.0137 21.1003C23.6136 21.1087 24.0552 21.4248 24.2388 22.0302C24.3093 22.2606 24.4197 22.2887 24.6046 22.2859C25.0621 22.2788 25.5197 22.2774 25.9773 22.2859C27.6134 22.3154 28.7095 23.4841 28.7215 25.2119C28.7215 25.5785 28.7215 25.9466 28.7215 26.3357C29.2801 26.2219 29.8029 26.0632 30.3337 26.0182C31.1969 25.9452 32.0629 25.9227 32.9315 25.9241C34.2683 25.9241 35.6131 25.8763 36.9393 26.0112C41.0948 26.4326 44.7422 29.8967 45.644 34.2078C45.7833 34.9304 45.8766 35.662 45.9234 36.3978C45.9859 37.2055 45.7092 37.4892 44.9444 37.4892H28.7162V37.95C28.7162 39.2142 28.7162 40.4715 28.7162 41.7315C28.7162 43.5267 27.6015 44.7067 25.9121 44.7067C21.6697 44.7067 17.4278 44.7067 13.1863 44.7067C11.4916 44.7067 10.3783 43.531 10.377 41.7385C10.377 36.2385 10.377 30.7386 10.377 25.2386C10.377 23.4701 11.485 22.3041 13.1703 22.2887C13.6412 22.269 14.1108 22.2718 14.5963 22.2718ZM14.6096 23.8451H13.2368C12.2911 23.8451 11.8747 24.2862 11.8747 25.2878V41.6697C11.8747 42.6909 12.2844 43.1166 13.2648 43.1166H25.843C26.818 43.1166 27.229 42.6867 27.229 41.6641V25.3201C27.229 25.2049 27.229 25.0911 27.229 24.9759C27.1984 24.4281 26.8087 23.9125 26.2979 23.8732C25.6541 23.824 25.0049 23.862 24.3425 23.862C24.3425 23.9617 24.3305 24.0362 24.3292 24.1092C24.3079 25.3524 23.8743 25.8047 22.6997 25.8047H16.2284C16.0954 25.8047 15.9624 25.8047 15.8294 25.7963C15.5061 25.7841 15.1996 25.6413 14.9732 25.3975C14.7467 25.1536 14.6175 24.8272 14.6122 24.4857C14.6003 24.2862 14.6096 24.0853 14.6096 23.8451ZM44.4163 35.8991C44.3671 35.5352 44.3338 35.2206 44.2833 34.9158C43.6182 31.0036 40.2927 27.7826 36.5456 27.5325C34.8057 27.4159 33.0539 27.444 31.31 27.4946C30.5624 27.5157 29.8229 27.7629 29.078 27.902C28.8119 27.9525 28.7148 28.0888 28.7175 28.3922C28.7295 30.7718 28.7175 33.1514 28.7255 35.531C28.7255 35.6532 28.7388 35.7741 28.7467 35.9061L44.4163 35.8991ZM22.8141 22.6399C22.2887 22.6399 21.7859 22.6202 21.2844 22.6399C20.6193 22.6736 20.2203 22.5134 20.1418 21.717C20.1169 21.5445 20.0322 21.388 19.9041 21.2779C19.776 21.1679 19.6137 21.112 19.4488 21.1214C19.2789 21.127 19.1163 21.1955 18.9894 21.3149C18.8625 21.4343 18.7793 21.597 18.7544 21.7745C18.6321 22.4629 18.4432 22.6342 17.7927 22.6356H16.0954V24.2089H22.8088L22.8141 22.6399Z" fill="#F56841"/>
<path d="M40.48 14.9479C40.3284 17.5508 39.2429 20.1819 37.0282 22.2145C34.8799 24.1811 32.3725 24.1418 30.2216 22.0558C28.0707 19.9698 26.9201 17.3106 26.9467 14.1963C26.9813 10.221 30.2429 6.97885 33.9488 7.13899C37.6161 7.29772 40.5093 10.5455 40.48 14.9479ZM28.4219 14.9142C28.4961 16.112 28.8008 17.2813 29.3174 18.3506C29.8341 19.4198 30.5518 20.3665 31.4268 21.1329C32.874 22.4056 34.5155 22.4491 35.9494 21.1624C38.1562 19.1691 39.2323 16.5998 38.921 13.5094C38.667 11.0146 36.52 8.90473 34.2069 8.73335C31.0118 8.48472 28.3926 11.0877 28.4219 14.9142Z" fill="#F56841"/>
<path d="M19.5337 41.0417C17.7259 41.0417 15.9196 41.0417 14.1118 41.0417C13.5505 41.0417 13.1807 40.6049 13.2938 40.102C13.3201 39.9433 13.3953 39.7983 13.5076 39.6894C13.6199 39.5804 13.7631 39.5136 13.915 39.4993C14.0586 39.4836 14.2029 39.4771 14.3473 39.4797H24.7546C24.8878 39.477 25.021 39.4822 25.1537 39.4951C25.3477 39.4977 25.5328 39.5816 25.6683 39.7284C25.8037 39.8751 25.8784 40.0727 25.876 40.2776C25.8735 40.4825 25.794 40.6779 25.6551 40.821C25.5161 40.964 25.3291 41.0429 25.1351 41.0403C24.7865 41.0614 24.4367 41.0488 24.0882 41.0488L19.5337 41.0417Z" fill="#F56841"/>
<path d="M19.5907 36.3613C21.3731 36.3613 23.1555 36.3613 24.938 36.3613C25.486 36.3613 25.8252 36.6605 25.8292 37.1311C25.8332 37.6016 25.4873 37.9079 24.9499 37.9135H19.6745C17.8069 37.9135 15.9397 37.9135 14.0731 37.9135C13.6394 37.9135 13.3375 37.648 13.275 37.2406C13.2532 37.069 13.2872 36.8946 13.3712 36.7459C13.4553 36.5972 13.5845 36.4829 13.7379 36.4217C13.9004 36.3761 14.0687 36.3572 14.2367 36.3655C16.0227 36.3599 17.8073 36.3585 19.5907 36.3613Z" fill="#F56841"/>
<path d="M18.4679 32.5138L21.8558 28.9388C22.0088 28.7772 22.1551 28.6045 22.3214 28.4584C22.46 28.334 22.6374 28.2684 22.8193 28.2743C23.0011 28.2802 23.1743 28.3571 23.3055 28.4902C23.4367 28.6233 23.5164 28.8031 23.5292 28.9947C23.542 29.1863 23.487 29.3761 23.3749 29.5274C23.3069 29.6165 23.2331 29.7005 23.1541 29.7788C21.8097 31.2004 20.4654 32.6215 19.121 34.0422C18.6341 34.5563 18.2723 34.5591 17.7908 34.0534C17.1541 33.3773 16.5183 32.7002 15.8833 32.0222C15.5002 31.6106 15.463 31.1498 15.7796 30.8141C16.0962 30.4784 16.5325 30.5037 16.9222 30.9082L18.4679 32.5138Z" fill="#F56841"/>
</svg>
