<svg width="196" height="91" viewBox="0 0 196 91" fill="none" xmlns="http://www.w3.org/2000/svg">
<path d="M0 2.33363C0 2.7071 0.110746 3.07219 0.318237 3.38272C0.525729 3.69326 0.820642 3.93529 1.16569 4.07821C1.51073 4.22113 1.89042 4.25853 2.25671 4.18566C2.62301 4.1128 2.95948 3.93296 3.22356 3.66887C3.48765 3.40479 3.66749 3.06832 3.74035 2.70202C3.81321 2.33572 3.77582 1.95605 3.6329 1.611C3.48998 1.26596 3.24794 0.971043 2.93741 0.763552C2.62688 0.556061 2.26179 0.445312 1.88832 0.445313C1.3875 0.445312 0.907203 0.644259 0.553075 0.998388C0.198947 1.35252 0 1.83282 0 2.33363Z" fill="white"/>
<path d="M20.8232 2.33363C20.8232 2.7071 20.934 3.07219 21.1415 3.38272C21.349 3.69326 21.6439 3.93529 21.9889 4.07821C22.334 4.22113 22.7137 4.25853 23.08 4.18566C23.4463 4.1128 23.7827 3.93296 24.0468 3.66887C24.3109 3.40479 24.4907 3.06832 24.5636 2.70202C24.6365 2.33572 24.5991 1.95605 24.4561 1.611C24.3132 1.26596 24.0712 0.971043 23.7607 0.763552C23.4501 0.556061 23.085 0.445312 22.7116 0.445313C22.2107 0.445312 21.7304 0.644259 21.3763 0.998388C21.0222 1.35252 20.8232 1.83282 20.8232 2.33363Z" fill="white"/>
<path d="M41.6475 2.33363C41.6475 2.7071 41.7582 3.07219 41.9657 3.38272C42.1732 3.69326 42.4681 3.93529 42.8132 4.07821C43.1582 4.22113 43.5379 4.25853 43.9042 4.18566C44.2705 4.1128 44.6069 3.93296 44.871 3.66887C45.1351 3.40479 45.315 3.06832 45.3878 2.70202C45.4607 2.33572 45.4233 1.95605 45.2804 1.611C45.1374 1.26596 44.8954 0.971043 44.5849 0.763552C44.2743 0.556061 43.9093 0.445312 43.5358 0.445313C43.035 0.445312 42.5547 0.644259 42.2005 0.998388C41.8464 1.35252 41.6475 1.83282 41.6475 2.33363Z" fill="white"/>
<path d="M62.4707 2.33363C62.4707 2.7071 62.5815 3.07219 62.7889 3.38272C62.9964 3.69326 63.2914 3.93529 63.6364 4.07821C63.9814 4.22113 64.3611 4.25853 64.7274 4.18566C65.0937 4.1128 65.4302 3.93296 65.6943 3.66887C65.9583 3.40479 66.1382 3.06832 66.2111 2.70202C66.2839 2.33572 66.2465 1.95605 66.1036 1.611C65.9607 1.26596 65.7186 0.971043 65.4081 0.763552C65.0976 0.556061 64.7325 0.445312 64.359 0.445313C63.8582 0.445312 63.3779 0.644259 63.0238 0.998388C62.6696 1.35252 62.4707 1.83282 62.4707 2.33363Z" fill="white"/>
<path d="M83.2949 2.33363C83.2949 2.7071 83.4057 3.07219 83.6132 3.38272C83.8207 3.69326 84.1156 3.93529 84.4606 4.07821C84.8057 4.22113 85.1853 4.25853 85.5516 4.18566C85.9179 4.1128 86.2544 3.93296 86.5185 3.66887C86.7826 3.40479 86.9624 3.06832 87.0353 2.70202C87.1081 2.33572 87.0707 1.95605 86.9278 1.611C86.7849 1.26596 86.5429 0.971043 86.2323 0.763552C85.9218 0.556061 85.5567 0.445312 85.1832 0.445313C84.6824 0.445312 84.2021 0.644259 83.848 0.998388C83.4939 1.35252 83.2949 1.83282 83.2949 2.33363Z" fill="white"/>
<path d="M104.118 2.33363C104.118 2.7071 104.229 3.07219 104.436 3.38272C104.644 3.69326 104.939 3.93529 105.284 4.07821C105.629 4.22113 106.009 4.25853 106.375 4.18566C106.741 4.1128 107.078 3.93296 107.342 3.66887C107.606 3.40479 107.786 3.06832 107.859 2.70202C107.931 2.33572 107.894 1.95605 107.751 1.611C107.608 1.26596 107.366 0.971043 107.056 0.763552C106.745 0.556061 106.38 0.445312 106.006 0.445313C105.506 0.445312 105.025 0.644259 104.671 0.998388C104.317 1.35252 104.118 1.83282 104.118 2.33363Z" fill="white"/>
<path d="M124.941 2.33363C124.941 2.7071 125.052 3.07219 125.26 3.38272C125.467 3.69326 125.762 3.93529 126.107 4.07821C126.452 4.22113 126.832 4.25853 127.198 4.18566C127.564 4.1128 127.901 3.93296 128.165 3.66887C128.429 3.40479 128.609 3.06832 128.682 2.70202C128.755 2.33572 128.717 1.95605 128.574 1.611C128.431 1.26596 128.189 0.971043 127.879 0.763552C127.568 0.556061 127.203 0.445312 126.83 0.445313C126.329 0.445312 125.849 0.644259 125.494 0.998388C125.14 1.35252 124.941 1.83282 124.941 2.33363Z" fill="white"/>
<path d="M145.766 2.33363C145.766 2.7071 145.876 3.07219 146.084 3.38272C146.291 3.69326 146.586 3.93529 146.931 4.07821C147.276 4.22113 147.656 4.25853 148.022 4.18566C148.389 4.1128 148.725 3.93296 148.989 3.66887C149.253 3.40479 149.433 3.06832 149.506 2.70202C149.579 2.33572 149.541 1.95605 149.399 1.611C149.256 1.26596 149.014 0.971043 148.703 0.763552C148.393 0.556061 148.027 0.445312 147.654 0.445313C147.153 0.445312 146.673 0.644259 146.319 0.998388C145.965 1.35252 145.766 1.83282 145.766 2.33363Z" fill="white"/>
<path d="M166.589 2.33363C166.589 2.7071 166.7 3.07219 166.907 3.38272C167.115 3.69326 167.41 3.93529 167.755 4.07821C168.1 4.22113 168.479 4.25853 168.846 4.18566C169.212 4.1128 169.548 3.93296 169.812 3.66887C170.077 3.40479 170.256 3.06832 170.329 2.70202C170.402 2.33572 170.365 1.95605 170.222 1.611C170.079 1.26596 169.837 0.971043 169.526 0.763552C169.216 0.556061 168.851 0.445312 168.477 0.445313C167.976 0.445312 167.496 0.644259 167.142 0.998388C166.788 1.35252 166.589 1.83282 166.589 2.33363Z" fill="white"/>
<path d="M187.412 2.33363C187.412 2.7071 187.523 3.07219 187.73 3.38272C187.938 3.69326 188.233 3.93529 188.578 4.07821C188.923 4.22113 189.303 4.25853 189.669 4.18566C190.035 4.1128 190.372 3.93296 190.636 3.66887C190.9 3.40479 191.08 3.06832 191.152 2.70202C191.225 2.33572 191.188 1.95605 191.045 1.611C190.902 1.26596 190.66 0.971043 190.35 0.763552C190.039 0.556061 189.674 0.445312 189.3 0.445313C188.8 0.445312 188.319 0.644259 187.965 0.998388C187.611 1.35252 187.412 1.83282 187.412 2.33363Z" fill="white"/>
<path d="M2.88235e-05 19.6839C0.00208976 20.0569 0.114589 20.421 0.323328 20.7301C0.532068 21.0393 0.827698 21.2797 1.17292 21.421C1.51814 21.5624 1.89749 21.5983 2.26309 21.5242C2.6287 21.4502 2.96419 21.2695 3.22723 21.005C3.49027 20.7405 3.66909 20.4041 3.74111 20.038C3.81313 19.672 3.77513 19.2929 3.63191 18.9485C3.48869 18.604 3.24665 18.3097 2.93635 18.1027C2.62605 17.8957 2.26137 17.7852 1.88834 17.7852C1.63949 17.7852 1.39309 17.8343 1.1633 17.9299C0.93352 18.0254 0.724886 18.1655 0.549403 18.3419C0.373919 18.5184 0.235042 18.7278 0.140761 18.9581C0.0464799 19.1884 -0.00134608 19.4351 2.88235e-05 19.6839Z" fill="white"/>
<path d="M20.8233 19.6839C20.8253 20.0569 20.9378 20.421 21.1466 20.7301C21.3553 21.0393 21.6509 21.2797 21.9962 21.421C22.3414 21.5624 22.7207 21.5983 23.0863 21.5242C23.4519 21.4502 23.7874 21.2695 24.0505 21.005C24.3135 20.7405 24.4923 20.4041 24.5644 20.038C24.6364 19.672 24.5984 19.2929 24.4552 18.9485C24.3119 18.604 24.0699 18.3097 23.7596 18.1027C23.4493 17.8957 23.0846 17.7852 22.7116 17.7852C22.4627 17.7852 22.2163 17.8343 21.9865 17.9299C21.7568 18.0254 21.5481 18.1655 21.3726 18.3419C21.1972 18.5184 21.0583 18.7278 20.964 18.9581C20.8697 19.1884 20.8219 19.4351 20.8233 19.6839Z" fill="white"/>
<path d="M41.6475 19.6839C41.6496 20.0569 41.762 20.421 41.9708 20.7301C42.1795 21.0393 42.4752 21.2797 42.8204 21.421C43.1656 21.5624 43.5449 21.5983 43.9106 21.5242C44.2762 21.4502 44.6117 21.2695 44.8747 21.005C45.1377 20.7405 45.3166 20.4041 45.3886 20.038C45.4606 19.672 45.4226 19.2929 45.2794 18.9485C45.1361 18.604 44.8941 18.3097 44.5838 18.1027C44.2735 17.8957 43.9088 17.7852 43.5358 17.7852C43.287 17.7852 43.0405 17.8343 42.8108 17.9299C42.581 18.0254 42.3723 18.1655 42.1969 18.3419C42.0214 18.5184 41.8825 18.7278 41.7882 18.9581C41.6939 19.1884 41.6461 19.4351 41.6475 19.6839Z" fill="white"/>
<path d="M62.4707 19.6839C62.4728 20.0569 62.5853 20.421 62.794 20.7301C63.0028 21.0393 63.2984 21.2797 63.6436 21.421C63.9888 21.5624 64.3682 21.5983 64.7338 21.5242C65.0994 21.4502 65.4349 21.2695 65.6979 21.005C65.961 20.7405 66.1398 20.4041 66.2118 20.038C66.2838 19.672 66.2458 19.2929 66.1026 18.9485C65.9594 18.604 65.7174 18.3097 65.4071 18.1027C65.0968 17.8957 64.7321 17.7852 64.3591 17.7852C64.1102 17.7852 63.8638 17.8343 63.634 17.9299C63.4042 18.0254 63.1956 18.1655 63.0201 18.3419C62.8446 18.5184 62.7058 18.7278 62.6115 18.9581C62.5172 19.1884 62.4694 19.4351 62.4707 19.6839Z" fill="white"/>
<path d="M83.295 19.6839C83.297 20.0569 83.4095 20.421 83.6183 20.7301C83.827 21.0393 84.1226 21.2797 84.4678 21.421C84.8131 21.5624 85.1924 21.5983 85.558 21.5242C85.9236 21.4502 86.2591 21.2695 86.5222 21.005C86.7852 20.7405 86.964 20.4041 87.036 20.038C87.108 19.672 87.0701 19.2929 86.9268 18.9485C86.7836 18.604 86.5416 18.3097 86.2313 18.1027C85.921 17.8957 85.5563 17.7852 85.1833 17.7852C84.9344 17.7852 84.688 17.8343 84.4582 17.9299C84.2284 18.0254 84.0198 18.1655 83.8443 18.3419C83.6688 18.5184 83.53 18.7278 83.4357 18.9581C83.3414 19.1884 83.2936 19.4351 83.295 19.6839Z" fill="white"/>
<path d="M104.118 19.6839C104.12 20.0569 104.233 20.421 104.441 20.7301C104.65 21.0393 104.946 21.2797 105.291 21.421C105.636 21.5624 106.016 21.5983 106.381 21.5242C106.747 21.4502 107.082 21.2695 107.345 21.005C107.608 20.7405 107.787 20.4041 107.859 20.038C107.931 19.672 107.893 19.2929 107.75 18.9485C107.607 18.604 107.365 18.3097 107.055 18.1027C106.744 17.8957 106.38 17.7852 106.007 17.7852C105.758 17.7852 105.511 17.8343 105.281 17.9299C105.052 18.0254 104.843 18.1655 104.668 18.3419C104.492 18.5184 104.353 18.7278 104.259 18.9581C104.165 19.1884 104.117 19.4351 104.118 19.6839Z" fill="white"/>
<path d="M124.941 19.6839C124.943 20.0569 125.056 20.421 125.265 20.7301C125.473 21.0393 125.769 21.2797 126.114 21.421C126.46 21.5624 126.839 21.5983 127.205 21.5242C127.57 21.4502 127.906 21.2695 128.169 21.005C128.432 20.7405 128.611 20.4041 128.683 20.038C128.755 19.672 128.717 19.2929 128.573 18.9485C128.43 18.604 128.188 18.3097 127.878 18.1027C127.567 17.8957 127.203 17.7852 126.83 17.7852C126.581 17.7852 126.334 17.8343 126.105 17.9299C125.875 18.0254 125.666 18.1655 125.491 18.3419C125.315 18.5184 125.176 18.7278 125.082 18.9581C124.988 19.1884 124.94 19.4351 124.941 19.6839Z" fill="white"/>
<path d="M145.766 19.6839C145.768 20.0569 145.88 20.421 146.089 20.7301C146.298 21.0393 146.593 21.2797 146.939 21.421C147.284 21.5624 147.663 21.5983 148.029 21.5242C148.394 21.4502 148.73 21.2695 148.993 21.005C149.256 20.7405 149.435 20.4041 149.507 20.038C149.579 19.672 149.541 19.2929 149.398 18.9485C149.254 18.604 149.012 18.3097 148.702 18.1027C148.392 17.8957 148.027 17.7852 147.654 17.7852C147.405 17.7852 147.159 17.8343 146.929 17.9299C146.699 18.0254 146.491 18.1655 146.315 18.3419C146.14 18.5184 146.001 18.7278 145.906 18.9581C145.812 19.1884 145.764 19.4351 145.766 19.6839Z" fill="white"/>
<path d="M166.589 19.6839C166.591 20.0569 166.703 20.421 166.912 20.7301C167.121 21.0393 167.417 21.2797 167.762 21.421C168.107 21.5624 168.486 21.5983 168.852 21.5242C169.218 21.4502 169.553 21.2695 169.816 21.005C170.079 20.7405 170.258 20.4041 170.33 20.038C170.402 19.672 170.364 19.2929 170.221 18.9485C170.078 18.604 169.836 18.3097 169.525 18.1027C169.215 17.8957 168.85 17.7852 168.477 17.7852C168.228 17.7852 167.982 17.8343 167.752 17.9299C167.522 18.0254 167.314 18.1655 167.138 18.3419C166.963 18.5184 166.824 18.7278 166.73 18.9581C166.635 19.1884 166.588 19.4351 166.589 19.6839Z" fill="white"/>
<path d="M187.412 19.6839C187.414 20.0569 187.527 20.421 187.735 20.7301C187.944 21.0393 188.24 21.2797 188.585 21.421C188.93 21.5624 189.31 21.5983 189.675 21.5242C190.041 21.4502 190.376 21.2695 190.639 21.005C190.902 20.7405 191.081 20.4041 191.153 20.038C191.225 19.672 191.187 19.2929 191.044 18.9485C190.901 18.604 190.659 18.3097 190.348 18.1027C190.038 17.8957 189.673 17.7852 189.3 17.7852C189.052 17.7852 188.805 17.8343 188.575 17.9299C188.346 18.0254 188.137 18.1655 187.962 18.3419C187.786 18.5184 187.647 18.7278 187.553 18.9581C187.459 19.1884 187.411 19.4351 187.412 19.6839Z" fill="white"/>
<path d="M0 37.0123C0 37.3858 0.110746 37.7509 0.318237 38.0614C0.525729 38.372 0.820642 38.614 1.16569 38.7569C1.51073 38.8998 1.89042 38.9372 2.25671 38.8644C2.62301 38.7915 2.95948 38.6117 3.22356 38.3476C3.48765 38.0835 3.66749 37.747 3.74035 37.3807C3.81321 37.0144 3.77582 36.6348 3.6329 36.2897C3.48998 35.9447 3.24794 35.6498 2.93741 35.4423C2.62688 35.2348 2.26179 35.124 1.88832 35.124C1.64034 35.124 1.39479 35.1729 1.16569 35.2678C0.936586 35.3627 0.728422 35.5018 0.553075 35.6771C0.377728 35.8524 0.238638 36.0606 0.143741 36.2897C0.048844 36.5188 0 36.7644 0 37.0123Z" fill="white"/>
<path d="M20.8232 37.0123C20.8232 37.3858 20.934 37.7509 21.1415 38.0614C21.349 38.372 21.6439 38.614 21.9889 38.7569C22.334 38.8998 22.7137 38.9372 23.08 38.8644C23.4463 38.7915 23.7827 38.6117 24.0468 38.3476C24.3109 38.0835 24.4907 37.747 24.5636 37.3807C24.6365 37.0144 24.5991 36.6348 24.4561 36.2897C24.3132 35.9447 24.0712 35.6498 23.7607 35.4423C23.4501 35.2348 23.085 35.124 22.7116 35.124C22.4636 35.124 22.218 35.1729 21.9889 35.2678C21.7598 35.3627 21.5517 35.5018 21.3763 35.6771C21.201 35.8524 21.0619 36.0606 20.967 36.2897C20.8721 36.5188 20.8232 36.7644 20.8232 37.0123Z" fill="white"/>
<path d="M41.6475 37.0123C41.6475 37.3858 41.7582 37.7509 41.9657 38.0614C42.1732 38.372 42.4681 38.614 42.8132 38.7569C43.1582 38.8998 43.5379 38.9372 43.9042 38.8644C44.2705 38.7915 44.6069 38.6117 44.871 38.3476C45.1351 38.0835 45.315 37.747 45.3878 37.3807C45.4607 37.0144 45.4233 36.6348 45.2804 36.2897C45.1374 35.9447 44.8954 35.6498 44.5849 35.4423C44.2743 35.2348 43.9093 35.124 43.5358 35.124C43.2878 35.124 43.0423 35.1729 42.8132 35.2678C42.5841 35.3627 42.3759 35.5018 42.2005 35.6771C42.0252 35.8524 41.8861 36.0606 41.7912 36.2897C41.6963 36.5188 41.6475 36.7644 41.6475 37.0123Z" fill="white"/>
<path d="M62.4707 37.0123C62.4707 37.3858 62.5815 37.7509 62.7889 38.0614C62.9964 38.372 63.2914 38.614 63.6364 38.7569C63.9814 38.8998 64.3611 38.9372 64.7274 38.8644C65.0937 38.7915 65.4302 38.6117 65.6943 38.3476C65.9583 38.0835 66.1382 37.747 66.2111 37.3807C66.2839 37.0144 66.2465 36.6348 66.1036 36.2897C65.9607 35.9447 65.7186 35.6498 65.4081 35.4423C65.0976 35.2348 64.7325 35.124 64.359 35.124C64.111 35.124 63.8655 35.1729 63.6364 35.2678C63.4073 35.3627 63.1991 35.5018 63.0238 35.6771C62.8484 35.8524 62.7093 36.0606 62.6144 36.2897C62.5195 36.5188 62.4707 36.7644 62.4707 37.0123Z" fill="white"/>
<path d="M83.2949 37.0123C83.2949 37.3858 83.4057 37.7509 83.6132 38.0614C83.8207 38.372 84.1156 38.614 84.4606 38.7569C84.8057 38.8998 85.1853 38.9372 85.5516 38.8644C85.9179 38.7915 86.2544 38.6117 86.5185 38.3476C86.7826 38.0835 86.9624 37.747 87.0353 37.3807C87.1081 37.0144 87.0707 36.6348 86.9278 36.2897C86.7849 35.9447 86.5429 35.6498 86.2323 35.4423C85.9218 35.2348 85.5567 35.124 85.1832 35.124C84.9353 35.124 84.6897 35.1729 84.4606 35.2678C84.2315 35.3627 84.0233 35.5018 83.848 35.6771C83.6727 35.8524 83.5336 36.0606 83.4387 36.2897C83.3438 36.5188 83.2949 36.7644 83.2949 37.0123Z" fill="white"/>
<path d="M104.118 37.0123C104.118 37.3858 104.229 37.7509 104.436 38.0614C104.644 38.372 104.939 38.614 105.284 38.7569C105.629 38.8998 106.009 38.9372 106.375 38.8644C106.741 38.7915 107.078 38.6117 107.342 38.3476C107.606 38.0835 107.786 37.747 107.859 37.3807C107.931 37.0144 107.894 36.6348 107.751 36.2897C107.608 35.9447 107.366 35.6498 107.056 35.4423C106.745 35.2348 106.38 35.124 106.006 35.124C105.759 35.124 105.513 35.1729 105.284 35.2678C105.055 35.3627 104.847 35.5018 104.671 35.6771C104.496 35.8524 104.357 36.0606 104.262 36.2897C104.167 36.5188 104.118 36.7644 104.118 37.0123Z" fill="white"/>
<path d="M124.941 37.0123C124.941 37.3858 125.052 37.7509 125.26 38.0614C125.467 38.372 125.762 38.614 126.107 38.7569C126.452 38.8998 126.832 38.9372 127.198 38.8644C127.564 38.7915 127.901 38.6117 128.165 38.3476C128.429 38.0835 128.609 37.747 128.682 37.3807C128.755 37.0144 128.717 36.6348 128.574 36.2897C128.431 35.9447 128.189 35.6498 127.879 35.4423C127.568 35.2348 127.203 35.124 126.83 35.124C126.582 35.124 126.336 35.1729 126.107 35.2678C125.878 35.3627 125.67 35.5018 125.494 35.6771C125.319 35.8524 125.18 36.0606 125.085 36.2897C124.99 36.5188 124.941 36.7644 124.941 37.0123Z" fill="white"/>
<path d="M145.766 37.0123C145.766 37.3858 145.876 37.7509 146.084 38.0614C146.291 38.372 146.586 38.614 146.931 38.7569C147.276 38.8998 147.656 38.9372 148.022 38.8644C148.389 38.7915 148.725 38.6117 148.989 38.3476C149.253 38.0835 149.433 37.747 149.506 37.3807C149.579 37.0144 149.541 36.6348 149.399 36.2897C149.256 35.9447 149.014 35.6498 148.703 35.4423C148.393 35.2348 148.027 35.124 147.654 35.124C147.406 35.124 147.16 35.1729 146.931 35.2678C146.702 35.3627 146.494 35.5018 146.319 35.6771C146.143 35.8524 146.004 36.0606 145.909 36.2897C145.814 36.5188 145.766 36.7644 145.766 37.0123Z" fill="white"/>
<path d="M166.589 37.0123C166.589 37.3858 166.7 37.7509 166.907 38.0614C167.115 38.372 167.41 38.614 167.755 38.7569C168.1 38.8998 168.479 38.9372 168.846 38.8644C169.212 38.7915 169.548 38.6117 169.812 38.3476C170.077 38.0835 170.256 37.747 170.329 37.3807C170.402 37.0144 170.365 36.6348 170.222 36.2897C170.079 35.9447 169.837 35.6498 169.526 35.4423C169.216 35.2348 168.851 35.124 168.477 35.124C168.229 35.124 167.984 35.1729 167.755 35.2678C167.525 35.3627 167.317 35.5018 167.142 35.6771C166.967 35.8524 166.827 36.0606 166.733 36.2897C166.638 36.5188 166.589 36.7644 166.589 37.0123Z" fill="white"/>
<path d="M187.412 37.0123C187.412 37.3858 187.523 37.7509 187.73 38.0614C187.938 38.372 188.233 38.614 188.578 38.7569C188.923 38.8998 189.303 38.9372 189.669 38.8644C190.035 38.7915 190.372 38.6117 190.636 38.3476C190.9 38.0835 191.08 37.747 191.152 37.3807C191.225 37.0144 191.188 36.6348 191.045 36.2897C190.902 35.9447 190.66 35.6498 190.35 35.4423C190.039 35.2348 189.674 35.124 189.3 35.124C189.052 35.124 188.807 35.1729 188.578 35.2678C188.349 35.3627 188.141 35.5018 187.965 35.6771C187.79 35.8524 187.651 36.0606 187.556 36.2897C187.461 36.5188 187.412 36.7644 187.412 37.0123Z" fill="white"/>
<path d="M0 54.3512C0 54.7247 0.110746 55.0898 0.318237 55.4003C0.525729 55.7108 0.820642 55.9529 1.16569 56.0958C1.51073 56.2387 1.89042 56.2761 2.25671 56.2032C2.62301 56.1304 2.95948 55.9505 3.22356 55.6865C3.48765 55.4224 3.66749 55.0859 3.74035 54.7196C3.81321 54.3533 3.77582 53.9736 3.6329 53.6286C3.48998 53.2835 3.24794 52.9886 2.93741 52.7811C2.62688 52.5736 2.26179 52.4629 1.88832 52.4629C1.3875 52.4629 0.907203 52.6618 0.553075 53.016C0.198947 53.3701 0 53.8504 0 54.3512Z" fill="white"/>
<path d="M20.8232 54.3512C20.8232 54.7247 20.934 55.0898 21.1415 55.4003C21.349 55.7108 21.6439 55.9529 21.9889 56.0958C22.334 56.2387 22.7137 56.2761 23.08 56.2032C23.4463 56.1304 23.7827 55.9505 24.0468 55.6865C24.3109 55.4224 24.4907 55.0859 24.5636 54.7196C24.6365 54.3533 24.5991 53.9736 24.4561 53.6286C24.3132 53.2835 24.0712 52.9886 23.7607 52.7811C23.4501 52.5736 23.085 52.4629 22.7116 52.4629C22.2107 52.4629 21.7304 52.6618 21.3763 53.016C21.0222 53.3701 20.8232 53.8504 20.8232 54.3512Z" fill="white"/>
<path d="M41.6475 54.3512C41.6475 54.7247 41.7582 55.0898 41.9657 55.4003C42.1732 55.7108 42.4681 55.9529 42.8132 56.0958C43.1582 56.2387 43.5379 56.2761 43.9042 56.2032C44.2705 56.1304 44.6069 55.9505 44.871 55.6865C45.1351 55.4224 45.315 55.0859 45.3878 54.7196C45.4607 54.3533 45.4233 53.9736 45.2804 53.6286C45.1374 53.2835 44.8954 52.9886 44.5849 52.7811C44.2743 52.5736 43.9093 52.4629 43.5358 52.4629C43.035 52.4629 42.5547 52.6618 42.2005 53.016C41.8464 53.3701 41.6475 53.8504 41.6475 54.3512Z" fill="white"/>
<path d="M62.4707 54.3512C62.4707 54.7247 62.5815 55.0898 62.7889 55.4003C62.9964 55.7108 63.2914 55.9529 63.6364 56.0958C63.9814 56.2387 64.3611 56.2761 64.7274 56.2032C65.0937 56.1304 65.4302 55.9505 65.6943 55.6865C65.9583 55.4224 66.1382 55.0859 66.2111 54.7196C66.2839 54.3533 66.2465 53.9736 66.1036 53.6286C65.9607 53.2835 65.7186 52.9886 65.4081 52.7811C65.0976 52.5736 64.7325 52.4629 64.359 52.4629C63.8582 52.4629 63.3779 52.6618 63.0238 53.016C62.6696 53.3701 62.4707 53.8504 62.4707 54.3512Z" fill="white"/>
<path d="M83.2949 54.3512C83.2949 54.7247 83.4057 55.0898 83.6132 55.4003C83.8207 55.7108 84.1156 55.9529 84.4606 56.0958C84.8057 56.2387 85.1853 56.2761 85.5516 56.2032C85.9179 56.1304 86.2544 55.9505 86.5185 55.6865C86.7826 55.4224 86.9624 55.0859 87.0353 54.7196C87.1081 54.3533 87.0707 53.9736 86.9278 53.6286C86.7849 53.2835 86.5429 52.9886 86.2323 52.7811C85.9218 52.5736 85.5567 52.4629 85.1832 52.4629C84.6824 52.4629 84.2021 52.6618 83.848 53.016C83.4939 53.3701 83.2949 53.8504 83.2949 54.3512Z" fill="white"/>
<path d="M104.118 54.3512C104.118 54.7247 104.229 55.0898 104.436 55.4003C104.644 55.7108 104.939 55.9529 105.284 56.0958C105.629 56.2387 106.009 56.2761 106.375 56.2032C106.741 56.1304 107.078 55.9505 107.342 55.6865C107.606 55.4224 107.786 55.0859 107.859 54.7196C107.931 54.3533 107.894 53.9736 107.751 53.6286C107.608 53.2835 107.366 52.9886 107.056 52.7811C106.745 52.5736 106.38 52.4629 106.006 52.4629C105.506 52.4629 105.025 52.6618 104.671 53.016C104.317 53.3701 104.118 53.8504 104.118 54.3512Z" fill="white"/>
<path d="M124.941 54.3512C124.941 54.7247 125.052 55.0898 125.26 55.4003C125.467 55.7108 125.762 55.9529 126.107 56.0958C126.452 56.2387 126.832 56.2761 127.198 56.2032C127.564 56.1304 127.901 55.9505 128.165 55.6865C128.429 55.4224 128.609 55.0859 128.682 54.7196C128.755 54.3533 128.717 53.9736 128.574 53.6286C128.431 53.2835 128.189 52.9886 127.879 52.7811C127.568 52.5736 127.203 52.4629 126.83 52.4629C126.329 52.4629 125.849 52.6618 125.494 53.016C125.14 53.3701 124.941 53.8504 124.941 54.3512Z" fill="white"/>
<path d="M145.766 54.3512C145.766 54.7247 145.876 55.0898 146.084 55.4003C146.291 55.7108 146.586 55.9529 146.931 56.0958C147.276 56.2387 147.656 56.2761 148.022 56.2032C148.389 56.1304 148.725 55.9505 148.989 55.6865C149.253 55.4224 149.433 55.0859 149.506 54.7196C149.579 54.3533 149.541 53.9736 149.399 53.6286C149.256 53.2835 149.014 52.9886 148.703 52.7811C148.393 52.5736 148.027 52.4629 147.654 52.4629C147.153 52.4629 146.673 52.6618 146.319 53.016C145.965 53.3701 145.766 53.8504 145.766 54.3512Z" fill="white"/>
<path d="M166.589 54.3512C166.589 54.7247 166.7 55.0898 166.907 55.4003C167.115 55.7108 167.41 55.9529 167.755 56.0958C168.1 56.2387 168.479 56.2761 168.846 56.2032C169.212 56.1304 169.548 55.9505 169.812 55.6865C170.077 55.4224 170.256 55.0859 170.329 54.7196C170.402 54.3533 170.365 53.9736 170.222 53.6286C170.079 53.2835 169.837 52.9886 169.526 52.7811C169.216 52.5736 168.851 52.4629 168.477 52.4629C167.976 52.4629 167.496 52.6618 167.142 53.016C166.788 53.3701 166.589 53.8504 166.589 54.3512Z" fill="white"/>
<path d="M187.412 54.3512C187.412 54.7247 187.523 55.0898 187.73 55.4003C187.938 55.7108 188.233 55.9529 188.578 56.0958C188.923 56.2387 189.303 56.2761 189.669 56.2032C190.035 56.1304 190.372 55.9505 190.636 55.6865C190.9 55.4224 191.08 55.0859 191.152 54.7196C191.225 54.3533 191.188 53.9736 191.045 53.6286C190.902 53.2835 190.66 52.9886 190.35 52.7811C190.039 52.5736 189.674 52.4629 189.3 52.4629C188.8 52.4629 188.319 52.6618 187.965 53.016C187.611 53.3701 187.412 53.8504 187.412 54.3512Z" fill="white"/>
<path d="M0 71.6901C0 72.0635 0.110746 72.4286 0.318237 72.7392C0.525729 73.0497 0.820642 73.2917 1.16569 73.4347C1.51073 73.5776 1.89042 73.615 2.25671 73.5421C2.62301 73.4692 2.95948 73.2894 3.22356 73.0253C3.48765 72.7612 3.66749 72.4248 3.74035 72.0585C3.81321 71.6922 3.77582 71.3125 3.6329 70.9675C3.48998 70.6224 3.24794 70.3275 2.93741 70.12C2.62688 69.9125 2.26179 69.8018 1.88832 69.8018C1.38835 69.8045 0.909636 70.0043 0.5561 70.3579C0.202563 70.7114 0.00273961 71.1901 0 71.6901Z" fill="white"/>
<path d="M20.8232 71.6901C20.8232 72.0635 20.934 72.4286 21.1415 72.7392C21.349 73.0497 21.6439 73.2917 21.9889 73.4347C22.334 73.5776 22.7137 73.615 23.08 73.5421C23.4463 73.4692 23.7827 73.2894 24.0468 73.0253C24.3109 72.7612 24.4907 72.4248 24.5636 72.0585C24.6365 71.6922 24.5991 71.3125 24.4561 70.9675C24.3132 70.6224 24.0712 70.3275 23.7607 70.12C23.4501 69.9125 23.085 69.8018 22.7116 69.8018C22.2116 69.8045 21.7329 70.0043 21.3793 70.3579C21.0258 70.7114 20.826 71.1901 20.8232 71.6901Z" fill="white"/>
<path d="M41.6475 71.6901C41.6475 72.0635 41.7582 72.4286 41.9657 72.7392C42.1732 73.0497 42.4681 73.2917 42.8132 73.4347C43.1582 73.5776 43.5379 73.615 43.9042 73.5421C44.2705 73.4692 44.6069 73.2894 44.871 73.0253C45.1351 72.7612 45.315 72.4248 45.3878 72.0585C45.4607 71.6922 45.4233 71.3125 45.2804 70.9675C45.1374 70.6224 44.8954 70.3275 44.5849 70.12C44.2743 69.9125 43.9093 69.8018 43.5358 69.8018C43.0358 69.8045 42.5571 70.0043 42.2036 70.3579C41.85 70.7114 41.6502 71.1901 41.6475 71.6901Z" fill="white"/>
<path d="M64.359 73.5784C65.4019 73.5784 66.2474 72.733 66.2474 71.6901C66.2474 70.6472 65.4019 69.8018 64.359 69.8018C63.3161 69.8018 62.4707 70.6472 62.4707 71.6901C62.4707 72.733 63.3161 73.5784 64.359 73.5784Z" fill="white"/>
<path d="M85.1832 73.5784C86.2261 73.5784 87.0716 72.733 87.0716 71.6901C87.0716 70.6472 86.2261 69.8018 85.1832 69.8018C84.1403 69.8018 83.2949 70.6472 83.2949 71.6901C83.2949 72.733 84.1403 73.5784 85.1832 73.5784Z" fill="white"/>
<path d="M106.006 73.5784C107.049 73.5784 107.895 72.733 107.895 71.6901C107.895 70.6472 107.049 69.8018 106.006 69.8018C104.964 69.8018 104.118 70.6472 104.118 71.6901C104.118 72.733 104.964 73.5784 106.006 73.5784Z" fill="white"/>
<path d="M124.941 71.6901C124.941 72.0635 125.052 72.4286 125.26 72.7392C125.467 73.0497 125.762 73.2917 126.107 73.4347C126.452 73.5776 126.832 73.615 127.198 73.5421C127.564 73.4692 127.901 73.2894 128.165 73.0253C128.429 72.7612 128.609 72.4248 128.682 72.0585C128.755 71.6922 128.717 71.3125 128.574 70.9675C128.431 70.6224 128.189 70.3275 127.879 70.12C127.568 69.9125 127.203 69.8018 126.83 69.8018C126.33 69.8045 125.851 70.0043 125.498 70.3579C125.144 70.7114 124.944 71.1901 124.941 71.6901Z" fill="white"/>
<path d="M145.766 71.6901C145.766 72.0635 145.876 72.4286 146.084 72.7392C146.291 73.0497 146.586 73.2917 146.931 73.4347C147.276 73.5776 147.656 73.615 148.022 73.5421C148.389 73.4692 148.725 73.2894 148.989 73.0253C149.253 72.7612 149.433 72.4248 149.506 72.0585C149.579 71.6922 149.541 71.3125 149.399 70.9675C149.256 70.6224 149.014 70.3275 148.703 70.12C148.393 69.9125 148.027 69.8018 147.654 69.8018C147.154 69.8045 146.675 70.0043 146.322 70.3579C145.968 70.7114 145.768 71.1901 145.766 71.6901Z" fill="white"/>
<path d="M166.589 71.6901C166.589 72.0635 166.7 72.4286 166.907 72.7392C167.115 73.0497 167.41 73.2917 167.755 73.4347C168.1 73.5776 168.479 73.615 168.846 73.5421C169.212 73.4692 169.548 73.2894 169.812 73.0253C170.077 72.7612 170.256 72.4248 170.329 72.0585C170.402 71.6922 170.365 71.3125 170.222 70.9675C170.079 70.6224 169.837 70.3275 169.526 70.12C169.216 69.9125 168.851 69.8018 168.477 69.8018C167.977 69.8045 167.499 70.0043 167.145 70.3579C166.791 70.7114 166.592 71.1901 166.589 71.6901Z" fill="white"/>
<path d="M187.412 71.6901C187.412 72.0635 187.523 72.4286 187.73 72.7392C187.938 73.0497 188.233 73.2917 188.578 73.4347C188.923 73.5776 189.303 73.615 189.669 73.5421C190.035 73.4692 190.372 73.2894 190.636 73.0253C190.9 72.7612 191.08 72.4248 191.152 72.0585C191.225 71.6922 191.188 71.3125 191.045 70.9675C190.902 70.6224 190.66 70.3275 190.35 70.12C190.039 69.9125 189.674 69.8018 189.3 69.8018C188.8 69.8045 188.322 70.0043 187.968 70.3579C187.615 70.7114 187.415 71.1901 187.412 71.6901Z" fill="white"/>
<path d="M0 89.0299C0 89.4034 0.110746 89.7685 0.318237 90.079C0.525729 90.3895 0.820642 90.6316 1.16569 90.7745C1.51073 90.9174 1.89042 90.9548 2.25671 90.882C2.62301 90.8091 2.95948 90.6292 3.22356 90.3652C3.48765 90.1011 3.66749 89.7646 3.74035 89.3983C3.81321 89.032 3.77582 88.6523 3.6329 88.3073C3.48998 87.9622 3.24794 87.6673 2.93741 87.4598C2.62688 87.2523 2.26179 87.1416 1.88832 87.1416C1.3875 87.1416 0.907203 87.3405 0.553075 87.6947C0.198947 88.0488 0 88.5291 0 89.0299Z" fill="white"/>
<path d="M20.8232 89.0299C20.8232 89.4034 20.934 89.7685 21.1415 90.079C21.349 90.3895 21.6439 90.6316 21.9889 90.7745C22.334 90.9174 22.7137 90.9548 23.08 90.882C23.4463 90.8091 23.7827 90.6292 24.0468 90.3652C24.3109 90.1011 24.4907 89.7646 24.5636 89.3983C24.6365 89.032 24.5991 88.6523 24.4561 88.3073C24.3132 87.9622 24.0712 87.6673 23.7607 87.4598C23.4501 87.2523 23.085 87.1416 22.7116 87.1416C22.2107 87.1416 21.7304 87.3405 21.3763 87.6947C21.0222 88.0488 20.8232 88.5291 20.8232 89.0299Z" fill="white"/>
<path d="M41.6475 89.0299C41.6475 89.4034 41.7582 89.7685 41.9657 90.079C42.1732 90.3895 42.4681 90.6316 42.8132 90.7745C43.1582 90.9174 43.5379 90.9548 43.9042 90.882C44.2705 90.8091 44.6069 90.6292 44.871 90.3652C45.1351 90.1011 45.315 89.7646 45.3878 89.3983C45.4607 89.032 45.4233 88.6523 45.2804 88.3073C45.1374 87.9622 44.8954 87.6673 44.5849 87.4598C44.2743 87.2523 43.9093 87.1416 43.5358 87.1416C43.035 87.1416 42.5547 87.3405 42.2005 87.6947C41.8464 88.0488 41.6475 88.5291 41.6475 89.0299Z" fill="white"/>
<path d="M62.4707 89.0299C62.4707 89.4034 62.5815 89.7685 62.7889 90.079C62.9964 90.3895 63.2914 90.6316 63.6364 90.7745C63.9814 90.9174 64.3611 90.9548 64.7274 90.882C65.0937 90.8091 65.4302 90.6292 65.6943 90.3652C65.9583 90.1011 66.1382 89.7646 66.2111 89.3983C66.2839 89.032 66.2465 88.6523 66.1036 88.3073C65.9607 87.9622 65.7186 87.6673 65.4081 87.4598C65.0976 87.2523 64.7325 87.1416 64.359 87.1416C63.8582 87.1416 63.3779 87.3405 63.0238 87.6947C62.6696 88.0488 62.4707 88.5291 62.4707 89.0299Z" fill="white"/>
<path d="M83.2949 89.0299C83.2949 89.4034 83.4057 89.7685 83.6132 90.079C83.8207 90.3895 84.1156 90.6316 84.4606 90.7745C84.8057 90.9174 85.1853 90.9548 85.5516 90.882C85.9179 90.8091 86.2544 90.6292 86.5185 90.3652C86.7826 90.1011 86.9624 89.7646 87.0353 89.3983C87.1081 89.032 87.0707 88.6523 86.9278 88.3073C86.7849 87.9622 86.5429 87.6673 86.2323 87.4598C85.9218 87.2523 85.5567 87.1416 85.1832 87.1416C84.6824 87.1416 84.2021 87.3405 83.848 87.6947C83.4939 88.0488 83.2949 88.5291 83.2949 89.0299Z" fill="white"/>
<path d="M104.118 89.0299C104.118 89.4034 104.229 89.7685 104.436 90.079C104.644 90.3895 104.939 90.6316 105.284 90.7745C105.629 90.9174 106.009 90.9548 106.375 90.882C106.741 90.8091 107.078 90.6292 107.342 90.3652C107.606 90.1011 107.786 89.7646 107.859 89.3983C107.931 89.032 107.894 88.6523 107.751 88.3073C107.608 87.9622 107.366 87.6673 107.056 87.4598C106.745 87.2523 106.38 87.1416 106.006 87.1416C105.506 87.1416 105.025 87.3405 104.671 87.6947C104.317 88.0488 104.118 88.5291 104.118 89.0299Z" fill="white"/>
<path d="M124.941 89.0299C124.941 89.4034 125.052 89.7685 125.26 90.079C125.467 90.3895 125.762 90.6316 126.107 90.7745C126.452 90.9174 126.832 90.9548 127.198 90.882C127.564 90.8091 127.901 90.6292 128.165 90.3652C128.429 90.1011 128.609 89.7646 128.682 89.3983C128.755 89.032 128.717 88.6523 128.574 88.3073C128.431 87.9622 128.189 87.6673 127.879 87.4598C127.568 87.2523 127.203 87.1416 126.83 87.1416C126.329 87.1416 125.849 87.3405 125.494 87.6947C125.14 88.0488 124.941 88.5291 124.941 89.0299Z" fill="white"/>
<path d="M145.766 89.0299C145.766 89.4034 145.876 89.7685 146.084 90.079C146.291 90.3895 146.586 90.6316 146.931 90.7745C147.276 90.9174 147.656 90.9548 148.022 90.882C148.389 90.8091 148.725 90.6292 148.989 90.3652C149.253 90.1011 149.433 89.7646 149.506 89.3983C149.579 89.032 149.541 88.6523 149.399 88.3073C149.256 87.9622 149.014 87.6673 148.703 87.4598C148.393 87.2523 148.027 87.1416 147.654 87.1416C147.153 87.1416 146.673 87.3405 146.319 87.6947C145.965 88.0488 145.766 88.5291 145.766 89.0299Z" fill="white"/>
<path d="M166.589 89.0299C166.589 89.4034 166.7 89.7685 166.907 90.079C167.115 90.3895 167.41 90.6316 167.755 90.7745C168.1 90.9174 168.479 90.9548 168.846 90.882C169.212 90.8091 169.548 90.6292 169.812 90.3652C170.077 90.1011 170.256 89.7646 170.329 89.3983C170.402 89.032 170.365 88.6523 170.222 88.3073C170.079 87.9622 169.837 87.6673 169.526 87.4598C169.216 87.2523 168.851 87.1416 168.477 87.1416C167.976 87.1416 167.496 87.3405 167.142 87.6947C166.788 88.0488 166.589 88.5291 166.589 89.0299Z" fill="white"/>
<path d="M187.412 89.0299C187.412 89.4034 187.523 89.7685 187.73 90.079C187.938 90.3895 188.233 90.6316 188.578 90.7745C188.923 90.9174 189.303 90.9548 189.669 90.882C190.035 90.8091 190.372 90.6292 190.636 90.3652C190.9 90.1011 191.08 89.7646 191.152 89.3983C191.225 89.032 191.188 88.6523 191.045 88.3073C190.902 87.9622 190.66 87.6673 190.35 87.4598C190.039 87.2523 189.674 87.1416 189.3 87.1416C188.8 87.1416 188.319 87.3405 187.965 87.6947C187.611 88.0488 187.412 88.5291 187.412 89.0299Z" fill="white"/>
</svg>
