<svg width="20" height="19" viewBox="0 0 20 19" fill="none" xmlns="http://www.w3.org/2000/svg">
<path d="M9.04894 0.927049C9.3483 0.0057385 10.6517 0.0057404 10.9511 0.927051L12.5819 5.9463C12.7158 6.35833 13.0997 6.63729 13.533 6.63729H18.8105C19.7792 6.63729 20.182 7.8769 19.3983 8.4463L15.1287 11.5484C14.7782 11.803 14.6315 12.2544 14.7654 12.6664L16.3963 17.6857C16.6956 18.607 15.6411 19.3731 14.8574 18.8037L10.5878 15.7016C10.2373 15.447 9.7627 15.447 9.41221 15.7016L5.14258 18.8037C4.35887 19.3731 3.30439 18.607 3.60374 17.6857L5.2346 12.6664C5.36847 12.2544 5.22181 11.803 4.87132 11.5484L0.60169 8.4463C-0.182023 7.8769 0.220754 6.63729 1.18948 6.63729H6.46703C6.90026 6.63729 7.28421 6.35833 7.41809 5.9463L9.04894 0.927049Z" fill="#FFBB00"/>
</svg>
